<svg id="svg" version="1.1" xmlns="http://www.w3.org/2000/svg" xmlns:xlink="http://www.w3.org/1999/xlink" width="400" height="400" viewBox="0, 0, 400,400"><g id="svgg"><path id="path0" d="M316.754 174.900 C 316.424 175.175,315.693 176.030,315.129 176.800 C 314.058 178.263,307.943 184.362,305.700 186.204 C 304.216 187.422,304.145 187.688,305.058 188.600 C 306.374 189.917,314.283 186.233,317.737 182.695 L 318.874 181.530 319.763 182.365 C 320.252 182.824,320.770 183.200,320.916 183.200 C 321.061 183.200,322.359 183.740,323.800 184.400 C 327.571 186.127,328.276 185.893,327.722 183.096 C 327.181 180.367,330.015 184.416,332.974 190.600 C 333.605 191.920,334.166 193.057,334.220 193.126 C 334.274 193.195,335.372 193.495,336.659 193.793 C 339.029 194.341,347.021 194.995,346.100 194.566 C 345.825 194.438,345.599 194.033,345.597 193.667 C 345.596 193.300,345.233 192.460,344.791 191.800 C 342.205 187.940,340.335 183.569,341.382 183.831 C 342.145 184.023,342.400 183.931,342.400 183.466 C 342.400 182.513,344.010 181.600,345.689 181.600 C 346.520 181.600,347.200 181.428,347.200 181.218 C 347.200 180.552,344.400 180.272,342.853 180.783 C 341.273 181.304,332.864 179.210,322.870 175.807 C 318.335 174.262,317.641 174.159,316.754 174.900 M294.892 187.601 C 294.356 188.459,295.027 190.008,296.394 191.070 C 298.091 192.388,301.811 190.291,301.292 188.310 C 301.112 187.620,300.838 187.537,299.311 187.709 C 298.028 187.854,297.481 187.756,297.327 187.354 C 297.050 186.633,296.000 186.635,296.000 187.357 C 296.000 187.663,296.452 188.027,297.004 188.165 C 297.955 188.404,297.452 190.437,296.454 190.387 C 295.789 190.355,294.708 188.304,295.197 188.002 C 295.472 187.832,295.630 187.490,295.547 187.242 C 295.464 186.991,295.174 187.149,294.892 187.601 M302.265 191.300 C 301.708 192.235,300.071 194.333,298.627 195.962 C 294.643 200.454,295.110 201.509,303.600 207.186 C 313.797 214.005,314.408 214.568,316.003 218.600 C 316.524 219.920,317.305 221.630,317.737 222.400 C 318.170 223.170,318.900 224.520,319.362 225.400 C 320.524 227.618,323.977 231.016,325.410 231.351 C 330.190 232.469,332.782 232.799,336.800 232.802 C 345.081 232.807,346.040 233.487,349.204 241.600 C 349.676 242.810,350.337 244.430,350.672 245.200 C 351.007 245.970,351.464 247.050,351.687 247.600 C 351.911 248.150,352.252 248.913,352.447 249.295 C 352.641 249.677,352.800 250.223,352.800 250.510 C 352.800 250.796,353.319 251.651,353.953 252.411 L 355.105 253.791 359.053 253.782 C 362.779 253.773,364.003 253.604,371.101 252.124 C 374.905 251.331,374.910 251.297,371.684 247.694 C 367.687 243.229,364.800 239.527,364.800 238.867 C 364.800 238.552,364.427 237.691,363.972 236.955 C 363.516 236.218,363.247 235.447,363.373 235.243 C 363.500 235.039,363.136 233.942,362.565 232.805 C 361.994 231.669,361.625 230.642,361.745 230.522 C 361.952 230.315,361.053 229.200,360.679 229.200 C 360.435 229.200,354.460 225.682,353.092 224.733 C 352.482 224.310,350.952 223.404,349.692 222.719 C 348.431 222.033,346.648 220.962,345.728 220.337 C 344.808 219.711,343.940 219.200,343.798 219.200 C 343.465 219.200,333.299 212.168,332.800 211.592 C 332.690 211.465,331.970 210.929,331.200 210.400 C 330.430 209.871,329.710 209.340,329.600 209.219 C 327.346 206.748,324.197 205.103,321.231 204.848 C 318.571 204.620,317.776 204.367,315.950 203.170 C 314.767 202.395,312.871 201.381,311.735 200.917 C 304.594 198.000,301.912 194.488,304.482 191.420 C 305.088 190.696,304.821 189.600,304.038 189.600 C 303.567 189.600,302.890 190.249,302.265 191.300 M307.200 191.553 C 307.200 193.070,308.510 193.807,313.219 194.938 C 315.738 195.544,320.050 196.578,322.800 197.236 C 325.550 197.894,328.430 198.597,329.200 198.797 C 329.970 198.998,332.220 199.539,334.200 200.000 C 336.180 200.461,338.430 201.002,339.200 201.203 C 340.858 201.634,350.128 203.841,351.684 204.175 C 352.843 204.423,353.600 203.604,353.600 202.102 C 353.600 201.689,353.960 200.964,354.400 200.492 C 355.535 199.274,355.405 198.937,353.700 198.676 C 351.944 198.408,349.453 197.956,343.400 196.806 C 340.980 196.346,337.110 195.629,334.800 195.211 C 332.490 194.794,326.730 193.735,322.000 192.857 C 310.313 190.690,307.200 190.415,307.200 191.553 M318.880 193.644 C 322.246 194.328,325.630 195.029,326.400 195.201 C 327.924 195.542,334.034 196.827,338.800 197.809 C 342.562 198.584,348.803 199.908,351.300 200.460 C 353.203 200.880,353.900 201.600,352.405 201.600 C 351.286 201.600,311.975 193.263,311.000 192.819 C 309.293 192.041,312.802 192.409,318.880 193.644 M356.029 200.693 L 355.058 201.482 356.334 201.295 C 357.748 201.087,361.257 201.845,361.623 202.437 C 361.752 202.645,362.099 202.362,362.396 201.808 C 363.104 200.485,362.971 200.401,359.747 200.133 C 357.396 199.937,356.860 200.018,356.029 200.693 M364.346 201.864 C 361.531 205.085,362.304 209.561,365.821 210.405 C 368.481 211.043,368.295 211.241,368.489 207.568 C 368.613 205.218,368.856 204.245,369.568 203.245 C 370.692 201.666,370.771 201.739,367.595 201.403 C 365.351 201.165,364.901 201.229,364.346 201.864 M354.468 203.200 C 354.339 206.689,355.751 208.154,360.000 208.940 L 361.400 209.199 361.400 206.423 C 361.400 204.897,361.278 203.979,361.128 204.383 C 360.370 206.432,354.931 205.143,354.689 202.857 C 354.545 201.499,354.530 201.522,354.468 203.200 M371.300 204.121 C 369.815 205.581,369.411 209.069,370.591 210.248 C 371.795 211.452,374.800 207.712,374.800 205.011 C 374.800 202.268,373.516 201.941,371.300 204.121 M337.200 205.200 C 337.200 205.420,337.362 205.600,337.559 205.600 C 337.757 205.600,339.062 206.291,340.459 207.136 C 343.764 209.134,355.276 214.857,355.513 214.621 C 356.144 213.989,353.001 209.200,351.955 209.200 C 351.346 209.200,350.736 209.020,350.600 208.800 C 350.464 208.580,349.949 208.400,349.456 208.400 C 348.963 208.400,348.389 208.246,348.180 208.058 C 347.971 207.870,346.180 207.226,344.200 206.626 C 342.220 206.027,340.078 205.371,339.440 205.168 C 337.938 204.691,337.200 204.702,337.200 205.200 " stroke="none" fill="#df9260" fill-rule="evenodd"></path><path id="path1" d="M316.044 174.900 C 311.880 179.888,310.011 181.855,307.239 184.168 C 305.458 185.653,304.000 187.151,304.000 187.495 C 304.000 188.239,302.293 190.625,299.000 194.482 C 293.147 201.339,293.110 202.443,298.634 205.684 C 299.275 206.060,301.549 207.604,303.687 209.115 C 312.617 215.425,313.288 216.174,315.835 222.660 C 319.467 231.912,323.042 234.301,337.600 237.204 C 342.409 238.163,344.114 239.656,347.417 245.800 C 352.096 254.503,354.300 256.000,362.433 256.000 C 366.584 256.000,367.963 255.824,373.600 254.572 C 386.207 251.772,387.240 250.533,381.298 245.341 C 379.594 243.851,375.844 240.247,372.964 237.333 C 368.919 233.239,367.099 231.701,364.964 230.575 C 357.018 226.384,354.249 224.862,350.600 222.677 C 348.400 221.359,345.848 219.768,344.928 219.141 C 344.008 218.513,343.063 218.000,342.828 218.000 C 342.593 218.000,342.400 217.820,342.400 217.600 C 342.400 217.380,342.222 217.200,342.003 217.200 C 341.785 217.200,340.824 216.615,339.867 215.900 C 338.909 215.185,336.725 213.610,335.011 212.400 C 333.298 211.190,331.695 210.017,331.448 209.793 C 330.353 208.797,325.725 205.479,324.674 204.935 C 324.036 204.605,322.470 203.567,321.195 202.628 C 319.065 201.060,318.627 200.902,315.790 200.688 C 313.564 200.519,312.132 200.158,310.652 199.391 C 309.523 198.806,307.760 197.900,306.733 197.379 C 304.567 196.278,303.613 195.109,303.872 193.874 C 304.042 193.062,304.021 193.053,303.583 193.744 C 302.564 195.350,306.426 198.748,311.735 200.917 C 312.871 201.381,314.767 202.395,315.950 203.170 C 317.776 204.367,318.571 204.620,321.231 204.848 C 324.197 205.103,327.346 206.748,329.600 209.219 C 329.710 209.340,330.430 209.871,331.200 210.400 C 331.970 210.929,332.690 211.465,332.800 211.592 C 333.299 212.168,343.465 219.200,343.798 219.200 C 343.940 219.200,344.808 219.711,345.728 220.337 C 346.648 220.962,348.431 222.033,349.692 222.719 C 350.952 223.404,352.482 224.310,353.092 224.733 C 354.460 225.682,360.435 229.200,360.679 229.200 C 361.053 229.200,361.952 230.315,361.745 230.522 C 361.625 230.642,361.994 231.669,362.565 232.805 C 363.136 233.942,363.500 235.039,363.373 235.243 C 363.247 235.447,363.516 236.218,363.972 236.955 C 364.427 237.691,364.800 238.552,364.800 238.867 C 364.800 239.527,367.687 243.229,371.684 247.694 C 374.910 251.297,374.905 251.331,371.101 252.124 C 364.003 253.604,362.779 253.773,359.053 253.782 L 355.105 253.791 353.953 252.411 C 353.319 251.651,352.800 250.796,352.800 250.510 C 352.800 250.223,352.641 249.677,352.447 249.295 C 352.252 248.913,351.911 248.150,351.687 247.600 C 351.464 247.050,351.007 245.970,350.672 245.200 C 350.337 244.430,349.676 242.810,349.204 241.600 C 346.040 233.487,345.081 232.807,336.800 232.802 C 332.782 232.799,330.190 232.469,325.410 231.351 C 323.977 231.016,320.524 227.618,319.362 225.400 C 318.900 224.520,318.170 223.170,317.737 222.400 C 317.305 221.630,316.524 219.920,316.003 218.600 C 314.408 214.568,313.797 214.005,303.600 207.186 C 295.110 201.509,294.643 200.454,298.627 195.962 C 300.071 194.333,301.708 192.235,302.265 191.300 C 303.321 189.524,304.596 189.045,304.924 190.300 C 305.098 190.967,305.109 190.967,305.154 190.300 C 305.190 189.754,305.563 189.600,306.854 189.600 C 308.431 189.600,310.196 189.244,313.140 188.334 C 314.091 188.040,314.607 188.047,314.920 188.360 C 315.660 189.100,316.189 188.876,318.536 186.822 L 320.797 184.843 322.899 185.690 C 325.744 186.838,326.163 187.261,326.812 189.643 C 327.425 191.894,327.652 192.053,331.200 192.719 C 332.410 192.946,333.760 193.254,334.200 193.403 C 334.661 193.560,334.817 193.532,334.568 193.338 C 334.331 193.152,333.616 191.920,332.981 190.600 C 329.978 184.362,327.183 180.373,327.722 183.096 C 328.276 185.893,327.571 186.127,323.800 184.400 C 322.359 183.740,321.061 183.200,320.916 183.200 C 320.770 183.200,320.252 182.824,319.763 182.365 L 318.874 181.530 317.737 182.695 C 314.283 186.233,306.374 189.917,305.058 188.600 C 304.145 187.688,304.216 187.422,305.700 186.207 C 308.195 184.164,314.846 177.420,315.653 176.115 C 316.882 174.126,317.804 174.105,323.308 175.940 C 334.222 179.580,341.232 181.317,342.849 180.784 C 344.400 180.272,347.200 180.552,347.200 181.218 C 347.200 181.428,346.520 181.600,345.689 181.600 C 344.010 181.600,342.400 182.513,342.400 183.466 C 342.400 183.931,342.145 184.023,341.382 183.831 C 340.335 183.569,342.205 187.940,344.791 191.800 C 345.233 192.460,345.596 193.300,345.597 193.667 C 345.599 194.033,345.825 194.440,346.100 194.570 C 346.375 194.699,345.070 194.729,343.200 194.636 L 339.800 194.466 344.000 195.208 C 346.310 195.616,349.334 196.074,350.720 196.224 L 353.240 196.497 352.965 195.349 C 349.324 180.132,347.960 178.210,342.324 180.353 C 341.354 180.722,330.688 177.914,322.953 175.254 C 318.563 173.745,317.071 173.668,316.044 174.900 M301.200 188.200 C 301.200 188.530,301.380 188.800,301.600 188.800 C 301.820 188.800,302.000 188.530,302.000 188.200 C 302.000 187.870,301.820 187.600,301.600 187.600 C 301.380 187.600,301.200 187.870,301.200 188.200 M294.685 189.600 C 294.923 190.571,295.471 191.181,296.116 191.194 C 296.289 191.197,296.238 190.975,296.002 190.700 C 295.766 190.425,295.318 189.840,295.006 189.400 C 294.464 188.634,294.450 188.642,294.685 189.600 M300.004 190.996 C 299.732 191.323,299.348 191.492,299.151 191.370 C 298.268 190.824,297.075 191.647,297.759 192.330 C 298.356 192.927,298.507 192.877,299.696 191.689 C 300.405 190.980,300.875 190.400,300.741 190.400 C 300.607 190.400,300.276 190.668,300.004 190.996 M306.846 191.299 C 306.885 192.041,306.927 192.069,307.084 191.457 C 307.258 190.782,307.555 190.739,310.285 190.995 C 312.234 191.178,313.209 191.138,313.051 190.882 C 312.472 189.945,306.796 190.326,306.846 191.299 M314.433 191.347 C 314.525 191.428,315.320 191.604,316.200 191.738 C 317.315 191.907,317.558 191.871,317.000 191.619 C 316.232 191.271,314.090 191.044,314.433 191.347 M318.433 192.143 C 318.525 192.222,319.320 192.397,320.200 192.532 C 321.290 192.699,321.609 192.655,321.200 192.395 C 320.653 192.046,318.045 191.809,318.433 192.143 M307.200 192.838 C 307.200 193.742,308.881 195.600,309.699 195.600 C 310.163 195.600,311.096 195.768,311.772 195.973 C 312.447 196.178,313.810 196.559,314.800 196.819 C 315.790 197.080,317.050 197.431,317.600 197.600 C 318.802 197.969,321.639 198.729,323.700 199.233 C 324.525 199.435,325.965 199.804,326.900 200.054 C 327.835 200.304,329.140 200.652,329.800 200.827 C 330.460 201.002,331.810 201.362,332.800 201.627 C 333.790 201.892,335.140 202.252,335.800 202.427 C 336.460 202.602,337.810 202.962,338.800 203.227 C 342.279 204.157,343.014 204.349,344.600 204.745 C 345.480 204.964,347.465 205.516,349.011 205.972 C 353.187 207.202,353.390 207.154,353.453 204.931 C 353.492 203.583,353.403 203.252,353.132 203.736 C 352.866 204.210,352.444 204.337,351.679 204.174 C 350.132 203.842,340.860 201.635,339.200 201.203 C 338.430 201.002,336.180 200.461,334.200 200.000 C 332.220 199.539,329.970 198.998,329.200 198.797 C 328.430 198.597,325.550 197.894,322.800 197.236 C 320.050 196.578,315.738 195.544,313.219 194.938 C 310.588 194.306,308.331 193.531,307.919 193.119 C 307.523 192.723,307.200 192.597,307.200 192.838 M322.833 192.944 C 322.925 193.024,323.810 193.196,324.800 193.327 C 326.002 193.486,326.334 193.447,325.800 193.210 C 325.036 192.872,322.486 192.643,322.833 192.944 M331.233 194.544 C 331.325 194.624,332.210 194.796,333.200 194.927 C 334.402 195.086,334.734 195.047,334.200 194.810 C 333.436 194.472,330.886 194.243,331.233 194.544 M336.100 195.476 C 336.485 195.576,337.115 195.576,337.500 195.476 C 337.885 195.375,337.570 195.293,336.800 195.293 C 336.030 195.293,335.715 195.375,336.100 195.476 M340.033 196.143 C 340.125 196.222,340.920 196.397,341.800 196.532 C 342.890 196.699,343.209 196.655,342.800 196.395 C 342.253 196.046,339.645 195.809,340.033 196.143 M348.900 197.876 C 349.285 197.976,349.915 197.976,350.300 197.876 C 350.685 197.775,350.370 197.693,349.600 197.693 C 348.830 197.693,348.515 197.775,348.900 197.876 M353.975 198.623 C 354.622 198.746,355.233 199.110,355.334 199.431 C 355.452 199.803,355.496 199.758,355.456 199.308 C 355.412 198.813,355.004 198.570,354.097 198.500 C 352.860 198.405,352.854 198.410,353.975 198.623 M364.070 201.726 C 363.591 202.235,363.200 202.799,363.200 202.980 C 363.200 203.160,363.564 202.845,364.009 202.280 C 364.454 201.714,365.309 201.177,365.909 201.086 L 367.000 200.920 365.970 200.860 C 365.351 200.824,364.592 201.170,364.070 201.726 M370.087 202.409 C 369.619 203.159,369.641 203.181,370.391 202.713 C 370.836 202.435,371.200 202.071,371.200 201.904 C 371.200 201.326,370.591 201.603,370.087 202.409 M372.499 202.282 C 370.766 202.616,369.600 204.779,369.600 207.661 C 369.600 211.250,370.197 212.038,372.050 210.893 C 374.956 209.096,376.471 204.614,374.837 202.645 C 374.297 201.994,374.131 201.968,372.499 202.282 M374.800 205.011 C 374.800 207.712,371.795 211.452,370.591 210.248 C 368.614 208.271,370.873 202.876,373.700 202.821 C 374.770 202.801,374.800 202.861,374.800 205.011 M335.400 204.405 C 334.623 204.743,334.626 204.761,335.500 205.023 C 335.995 205.172,336.400 205.452,336.400 205.647 C 336.400 205.841,336.760 206.000,337.200 206.000 C 337.640 206.000,338.001 206.135,338.003 206.300 C 338.005 206.465,338.410 206.799,338.903 207.041 C 339.396 207.284,340.880 208.072,342.200 208.791 C 352.172 214.229,357.887 217.046,358.237 216.696 C 358.630 216.303,356.664 210.355,356.029 210.015 C 355.193 209.568,348.480 207.559,347.200 207.374 C 346.554 207.280,346.483 207.308,347.000 207.453 C 347.440 207.577,347.971 207.840,348.180 208.039 C 348.389 208.237,348.963 208.400,349.456 208.400 C 349.949 208.400,350.464 208.580,350.600 208.800 C 350.736 209.020,351.346 209.200,351.955 209.200 C 353.001 209.200,356.144 213.989,355.513 214.621 C 355.276 214.857,343.764 209.134,340.459 207.136 C 339.062 206.291,337.737 205.600,337.516 205.600 C 337.295 205.600,337.212 205.345,337.332 205.033 C 337.497 204.602,336.699 203.848,336.267 204.028 C 336.230 204.044,335.840 204.213,335.400 204.405 M362.438 206.000 C 362.424 206.990,362.570 208.049,362.763 208.354 C 362.979 208.695,363.041 208.158,362.924 206.954 C 362.660 204.245,362.468 203.867,362.438 206.000 M368.400 208.972 C 368.400 210.492,368.272 210.769,367.500 210.918 C 366.728 211.066,366.757 211.099,367.700 211.146 C 368.761 211.198,368.800 211.128,368.800 209.200 C 368.800 208.100,368.710 207.200,368.600 207.200 C 368.490 207.200,368.400 207.997,368.400 208.972 M363.301 209.600 C 363.390 209.930,363.899 210.233,364.431 210.274 C 365.195 210.332,365.231 210.301,364.600 210.128 C 364.160 210.007,363.651 209.703,363.470 209.454 C 363.251 209.154,363.194 209.204,363.301 209.600 " stroke="none" fill="#b26634" fill-rule="evenodd"></path><path id="path2" d="M314.500 173.816 C 313.785 174.565,313.200 175.367,313.200 175.600 C 313.200 175.832,310.860 178.352,308.000 181.200 C 303.515 185.667,302.229 187.200,302.969 187.200 C 303.062 187.200,303.652 186.705,304.279 186.100 C 304.906 185.495,306.467 184.100,307.749 183.000 C 309.030 181.900,311.151 179.740,312.463 178.200 C 316.470 173.494,316.341 173.600,318.070 173.600 C 318.942 173.600,321.848 174.314,324.528 175.186 C 336.646 179.129,341.037 180.220,342.567 179.666 C 347.608 177.844,349.850 180.181,352.167 189.674 C 354.026 197.294,354.048 196.956,351.700 196.672 C 346.992 196.103,339.952 194.912,332.400 193.408 C 327.194 192.371,327.051 192.311,326.661 190.993 C 325.734 187.861,325.323 187.343,323.029 186.412 L 320.788 185.502 318.844 187.320 C 317.748 188.346,316.177 189.355,315.239 189.635 C 313.104 190.275,313.338 190.925,315.832 191.280 C 316.914 191.434,318.790 191.748,320.000 191.978 C 321.210 192.208,323.190 192.571,324.400 192.785 C 325.610 192.999,327.590 193.367,328.800 193.602 C 330.010 193.838,331.945 194.204,333.100 194.416 C 334.255 194.627,336.145 194.973,337.300 195.184 C 338.455 195.396,340.390 195.763,341.600 196.000 C 343.693 196.410,345.031 196.659,350.300 197.619 C 351.565 197.849,353.365 198.137,354.300 198.259 C 355.294 198.389,356.000 198.692,356.000 198.990 C 356.000 199.324,356.584 199.495,357.700 199.488 C 360.773 199.467,363.415 200.142,363.282 200.914 C 363.218 201.291,363.353 201.600,363.582 201.600 C 363.812 201.600,364.000 201.420,364.000 201.200 C 364.000 200.667,367.792 200.706,369.800 201.260 C 370.680 201.503,372.030 201.743,372.800 201.793 C 375.041 201.939,375.096 201.961,375.316 202.800 C 375.617 203.951,376.400 203.786,376.400 202.571 C 376.400 201.148,375.514 200.400,373.829 200.400 C 373.043 200.400,372.400 200.220,372.400 200.000 C 372.400 199.778,371.333 199.600,370.000 199.600 C 368.667 199.600,367.600 199.422,367.600 199.200 C 367.600 198.978,366.533 198.800,365.200 198.800 C 363.867 198.800,362.800 198.622,362.800 198.400 C 362.800 198.180,361.900 198.000,360.800 198.000 C 359.700 198.000,358.800 197.820,358.800 197.600 C 358.800 197.380,358.157 197.200,357.371 197.200 C 355.561 197.200,354.800 196.439,354.800 194.629 C 354.800 193.843,354.620 193.200,354.400 193.200 C 354.180 193.200,354.000 192.480,354.000 191.600 C 354.000 190.720,353.820 190.000,353.600 190.000 C 353.380 190.000,353.200 189.280,353.200 188.400 C 353.200 187.520,353.020 186.800,352.800 186.800 C 352.580 186.800,352.400 186.080,352.400 185.200 C 352.400 184.320,352.220 183.600,352.000 183.600 C 351.780 183.600,351.600 183.144,351.600 182.587 C 351.600 181.236,349.164 178.800,347.813 178.800 C 347.256 178.800,346.800 178.620,346.800 178.400 C 346.800 178.180,345.900 178.000,344.800 178.000 C 343.700 178.000,342.800 178.180,342.800 178.400 C 342.800 178.620,342.080 178.800,341.200 178.800 C 340.320 178.800,339.600 178.620,339.600 178.400 C 339.600 178.180,339.060 178.000,338.400 178.000 C 337.740 178.000,337.200 177.820,337.200 177.600 C 337.200 177.380,336.480 177.200,335.600 177.200 C 334.720 177.200,334.000 177.020,334.000 176.800 C 334.000 176.580,333.460 176.400,332.800 176.400 C 332.140 176.400,331.600 176.220,331.600 176.000 C 331.600 175.780,330.880 175.600,330.000 175.600 C 329.120 175.600,328.400 175.420,328.400 175.200 C 328.400 174.980,327.860 174.800,327.200 174.800 C 326.540 174.800,326.000 174.620,326.000 174.400 C 326.000 174.180,325.460 174.000,324.800 174.000 C 324.140 174.000,323.600 173.820,323.600 173.600 C 323.600 173.380,323.060 173.200,322.400 173.200 C 321.740 173.200,321.200 173.020,321.200 172.800 C 321.200 171.621,315.817 172.437,314.500 173.816 M291.600 186.618 C 291.600 187.190,293.530 189.463,293.743 189.142 C 294.035 188.703,294.800 186.705,294.800 186.381 C 294.800 186.172,294.080 186.000,293.200 186.000 C 292.024 186.000,291.600 186.164,291.600 186.618 M322.276 190.619 C 322.617 190.960,322.759 191.365,322.593 191.519 C 322.427 191.674,322.210 191.575,322.112 191.300 C 322.014 191.025,321.588 190.800,321.167 190.800 C 320.745 190.800,320.400 190.620,320.400 190.400 C 320.400 189.787,321.582 189.925,322.276 190.619 M295.600 191.629 C 295.600 192.182,296.618 193.200,297.171 193.200 C 297.821 193.200,297.686 192.601,296.869 191.862 C 296.023 191.097,295.600 191.019,295.600 191.629 M299.200 192.718 C 298.650 193.090,297.539 194.071,296.731 194.897 C 295.924 195.724,295.060 196.400,294.813 196.400 C 293.429 196.400,292.400 198.354,292.400 200.982 C 292.400 202.461,292.574 203.600,292.800 203.600 C 293.020 203.600,293.200 203.873,293.200 204.206 C 293.200 204.995,299.805 211.600,300.594 211.600 C 300.927 211.600,301.200 211.780,301.200 212.000 C 301.200 212.220,301.560 212.400,302.000 212.400 C 302.440 212.400,302.800 212.580,302.800 212.800 C 302.800 213.020,303.120 213.200,303.512 213.200 C 303.903 213.200,304.483 213.560,304.800 214.000 C 305.117 214.440,305.611 214.800,305.897 214.800 C 306.625 214.800,310.800 219.050,310.800 219.791 C 310.800 220.126,310.980 220.400,311.200 220.400 C 311.420 220.400,311.600 220.720,311.600 221.112 C 311.600 221.503,311.960 222.083,312.400 222.400 C 312.840 222.717,313.200 223.297,313.200 223.688 C 313.200 224.080,313.380 224.400,313.600 224.400 C 313.820 224.400,314.000 224.760,314.000 225.200 C 314.000 225.640,314.180 226.000,314.400 226.000 C 314.620 226.000,314.800 226.320,314.800 226.712 C 314.800 227.103,315.160 227.683,315.600 228.000 C 316.040 228.317,316.400 228.857,316.400 229.200 C 316.400 229.543,316.760 230.083,317.200 230.400 C 317.640 230.717,318.000 231.212,318.000 231.499 C 318.000 232.227,321.445 235.600,322.189 235.600 C 322.525 235.600,322.800 235.780,322.800 236.000 C 322.800 236.220,323.160 236.400,323.600 236.400 C 324.040 236.400,324.400 236.580,324.400 236.800 C 324.400 237.020,324.940 237.200,325.600 237.200 C 326.260 237.200,326.800 237.380,326.800 237.600 C 326.800 237.820,327.520 238.000,328.400 238.000 C 329.280 238.000,330.000 238.180,330.000 238.400 C 330.000 238.620,330.540 238.800,331.200 238.800 C 331.860 238.800,332.400 238.980,332.400 239.200 C 332.400 239.420,332.940 239.600,333.600 239.600 C 334.260 239.600,334.800 239.780,334.800 240.000 C 334.800 240.220,335.160 240.400,335.600 240.400 C 336.040 240.400,336.400 240.580,336.400 240.800 C 336.400 241.020,336.760 241.200,337.200 241.200 C 337.640 241.200,338.000 241.380,338.000 241.600 C 338.000 241.820,338.278 242.000,338.618 242.000 C 339.374 242.000,341.200 243.763,341.200 244.494 C 341.200 244.785,341.560 245.283,342.000 245.600 C 342.440 245.917,342.800 246.457,342.800 246.800 C 342.800 247.143,343.160 247.683,343.600 248.000 C 344.040 248.317,344.400 248.897,344.400 249.288 C 344.400 249.680,344.580 250.000,344.800 250.000 C 345.020 250.000,345.200 250.320,345.200 250.712 C 345.200 251.103,345.560 251.683,346.000 252.000 C 346.440 252.317,346.800 252.812,346.800 253.099 C 346.800 253.827,350.245 257.200,350.989 257.200 C 351.325 257.200,351.600 257.380,351.600 257.600 C 351.600 257.853,354.400 258.000,359.200 258.000 C 364.000 258.000,366.800 257.853,366.800 257.600 C 366.800 257.371,368.000 257.200,369.600 257.200 C 371.200 257.200,372.400 257.029,372.400 256.800 C 372.400 256.580,373.120 256.400,374.000 256.400 C 374.880 256.400,375.600 256.220,375.600 256.000 C 375.600 255.780,376.320 255.600,377.200 255.600 C 378.080 255.600,378.800 255.420,378.800 255.200 C 378.800 254.980,379.340 254.800,380.000 254.800 C 380.660 254.800,381.200 254.620,381.200 254.400 C 381.200 254.180,381.920 254.000,382.800 254.000 C 383.680 254.000,384.400 253.820,384.400 253.600 C 384.400 253.380,384.683 253.200,385.029 253.200 C 386.197 253.200,386.800 252.119,386.800 250.023 C 386.800 248.047,381.213 241.200,379.601 241.200 C 379.044 241.200,371.600 233.725,371.600 233.166 C 371.600 232.921,371.060 232.217,370.400 231.600 C 369.740 230.983,369.200 230.263,369.200 230.000 C 369.200 229.737,368.660 229.017,368.000 228.400 C 367.340 227.783,366.800 227.063,366.800 226.800 C 366.800 226.537,366.260 225.817,365.600 225.200 C 364.940 224.583,364.400 223.791,364.400 223.440 C 364.400 223.088,364.220 222.800,364.000 222.800 C 363.780 222.800,363.600 222.480,363.600 222.088 C 363.600 221.697,363.240 221.117,362.800 220.800 C 362.360 220.483,362.000 219.903,362.000 219.512 C 362.000 219.120,361.820 218.800,361.600 218.800 C 361.380 218.800,361.200 218.440,361.200 218.000 C 361.200 217.560,361.020 217.200,360.800 217.200 C 360.580 217.200,360.400 216.660,360.400 216.000 C 360.400 215.340,360.220 214.800,360.000 214.800 C 359.780 214.800,359.600 214.260,359.600 213.600 C 359.600 212.940,359.420 212.400,359.200 212.400 C 358.980 212.400,358.800 212.040,358.800 211.600 C 358.800 211.067,359.067 210.800,359.600 210.800 C 360.040 210.800,360.400 210.980,360.400 211.200 C 360.400 211.420,361.120 211.600,362.000 211.600 C 362.880 211.600,363.600 211.780,363.600 212.000 C 363.600 212.220,364.140 212.400,364.800 212.400 C 365.460 212.400,366.000 212.580,366.000 212.800 C 366.000 213.029,367.200 213.200,368.800 213.200 C 370.400 213.200,371.600 213.029,371.600 212.800 C 371.600 212.580,371.876 212.400,372.213 212.400 C 373.009 212.400,375.600 209.809,375.600 209.013 C 375.600 208.676,375.780 208.400,376.000 208.400 C 376.220 208.400,376.400 208.040,376.400 207.600 C 376.400 206.455,375.651 206.613,375.178 207.858 C 374.780 208.906,371.795 212.000,371.183 212.000 C 370.011 212.000,369.600 211.412,369.600 209.734 C 369.600 208.574,369.451 208.045,369.173 208.217 C 368.939 208.362,368.804 209.137,368.873 209.940 C 368.995 211.342,368.952 211.396,367.800 211.299 C 365.991 211.146,363.440 210.299,363.089 209.734 C 362.919 209.459,362.498 209.341,362.156 209.472 C 361.399 209.763,357.455 208.893,355.800 208.070 C 355.140 207.742,353.970 207.421,353.200 207.357 C 351.659 207.228,348.990 206.525,347.905 205.961 C 347.523 205.762,346.679 205.600,346.029 205.600 C 345.379 205.600,344.748 205.440,344.627 205.244 C 344.506 205.049,343.821 204.792,343.104 204.673 C 342.387 204.555,340.990 204.252,340.000 204.000 C 339.010 203.748,337.613 203.445,336.896 203.327 C 336.179 203.208,335.494 202.951,335.373 202.756 C 335.252 202.560,334.634 202.400,334.000 202.400 C 333.366 202.400,332.748 202.240,332.627 202.044 C 332.506 201.849,331.821 201.592,331.104 201.473 C 330.387 201.355,329.080 201.073,328.200 200.847 C 327.320 200.621,326.060 200.324,325.400 200.188 C 324.740 200.051,323.840 199.787,323.400 199.600 C 322.960 199.413,322.150 199.165,321.600 199.049 C 321.050 198.933,320.060 198.726,319.400 198.589 C 318.740 198.452,317.808 198.150,317.329 197.918 C 316.850 197.686,315.995 197.584,315.429 197.692 C 314.731 197.826,314.400 197.714,314.400 197.345 C 314.400 196.991,313.918 196.800,313.024 196.800 C 312.267 196.800,311.536 196.620,311.400 196.400 C 311.032 195.805,307.999 195.894,308.003 196.500 C 308.010 197.855,312.541 200.000,315.396 200.000 C 316.553 200.000,318.197 200.242,319.050 200.538 C 319.902 200.834,321.401 201.104,322.380 201.139 C 323.359 201.173,324.340 201.380,324.560 201.600 C 324.780 201.820,325.453 202.000,326.056 202.000 C 326.659 202.000,327.264 202.180,327.400 202.400 C 327.536 202.620,328.329 202.800,329.163 202.800 C 331.408 202.800,340.020 204.752,345.710 206.550 C 346.639 206.844,348.210 207.311,349.200 207.589 C 350.190 207.866,351.450 208.236,352.000 208.412 C 352.550 208.587,353.844 208.962,354.875 209.245 C 356.016 209.558,356.909 210.081,357.155 210.580 C 357.933 212.156,359.122 216.811,358.932 217.538 C 358.525 219.093,363.904 227.583,367.588 231.200 C 369.268 232.850,371.233 234.964,371.954 235.899 C 372.675 236.833,375.578 239.574,378.405 241.989 C 387.080 249.402,387.568 251.354,381.200 253.177 C 380.210 253.461,378.950 253.835,378.400 254.008 C 369.363 256.858,357.788 257.318,353.763 254.988 C 351.778 253.838,350.920 252.736,347.390 246.800 C 342.369 238.354,343.364 239.002,331.400 236.379 C 322.826 234.500,318.530 230.937,315.423 223.129 C 312.782 216.491,312.024 215.600,304.772 210.600 C 296.296 204.757,295.235 203.971,294.419 202.933 C 293.122 201.284,294.399 198.365,297.803 195.200 C 298.790 194.282,300.624 191.972,300.327 192.021 C 300.257 192.033,299.750 192.346,299.200 192.718 M362.100 203.083 C 361.503 204.369,361.435 207.851,362.000 208.200 C 362.251 208.355,362.400 207.479,362.400 205.847 C 362.400 204.417,362.580 203.136,362.800 203.000 C 363.267 202.712,363.338 201.999,362.900 202.003 C 362.735 202.005,362.375 202.491,362.100 203.083 M353.600 205.576 C 353.600 206.029,353.780 206.400,354.000 206.400 C 354.220 206.400,354.400 206.141,354.400 205.824 C 354.400 205.507,354.220 205.136,354.000 205.000 C 353.780 204.864,353.600 205.123,353.600 205.576 " stroke="none" fill="#452916" fill-rule="evenodd"></path><path id="path3" d="M146.800 159.200 C 146.800 159.420,146.524 159.600,146.187 159.600 C 145.479 159.600,142.800 162.152,142.800 162.826 C 142.800 163.075,142.260 163.783,141.600 164.400 C 140.940 165.017,140.400 165.769,140.400 166.072 C 140.400 166.375,140.040 166.883,139.600 167.200 C 139.160 167.517,138.800 168.097,138.800 168.488 C 138.800 168.880,138.620 169.200,138.400 169.200 C 138.180 169.200,138.000 169.740,138.000 170.400 C 138.000 171.060,137.820 171.600,137.600 171.600 C 137.380 171.600,137.200 171.960,137.200 172.400 C 137.200 172.840,137.020 173.200,136.800 173.200 C 136.580 173.200,136.400 173.560,136.400 174.000 C 136.400 174.440,136.220 174.800,136.000 174.800 C 135.780 174.800,135.600 175.160,135.600 175.600 C 135.600 176.040,135.420 176.400,135.200 176.400 C 134.980 176.400,134.800 176.760,134.800 177.200 C 134.800 177.640,134.620 178.000,134.400 178.000 C 134.180 178.000,134.000 178.360,134.000 178.800 C 134.000 179.511,133.733 179.600,131.600 179.600 C 129.467 179.600,129.200 179.511,129.200 178.800 C 129.200 178.360,129.380 178.000,129.600 178.000 C 129.820 178.000,130.000 177.680,130.000 177.288 C 130.000 176.897,130.360 176.317,130.800 176.000 C 131.240 175.683,131.600 175.143,131.600 174.800 C 131.600 174.457,131.960 173.917,132.400 173.600 C 132.840 173.283,133.200 172.703,133.200 172.312 C 133.200 171.920,133.380 171.600,133.600 171.600 C 133.820 171.600,134.000 171.060,134.000 170.400 C 134.000 169.211,133.980 169.200,131.782 169.200 C 129.455 169.200,127.600 170.345,127.600 171.782 C 127.600 172.122,127.420 172.400,127.200 172.400 C 126.980 172.400,126.800 172.720,126.800 173.112 C 126.800 173.503,126.440 174.083,126.000 174.400 C 125.560 174.717,125.200 175.297,125.200 175.688 C 125.200 176.080,125.020 176.400,124.800 176.400 C 124.580 176.400,124.400 176.760,124.400 177.200 C 124.400 177.640,124.220 178.000,124.000 178.000 C 123.780 178.000,123.600 178.360,123.600 178.800 C 123.600 179.493,123.333 179.600,121.600 179.600 C 120.500 179.600,119.600 179.780,119.600 180.000 C 119.600 180.233,118.267 180.400,116.400 180.400 C 113.467 180.400,113.200 180.467,113.200 181.200 C 113.200 181.952,113.467 182.000,117.600 182.000 L 122.000 182.000 122.000 183.200 C 122.000 183.860,121.820 184.400,121.600 184.400 C 121.380 184.400,121.200 184.940,121.200 185.600 C 121.200 186.260,121.020 186.800,120.800 186.800 C 120.580 186.800,120.400 187.340,120.400 188.000 C 120.400 188.660,120.220 189.200,120.000 189.200 C 119.780 189.200,119.600 189.560,119.600 190.000 C 119.600 190.440,119.420 190.800,119.200 190.800 C 118.980 190.800,118.800 191.160,118.800 191.600 C 118.800 192.040,118.620 192.400,118.400 192.400 C 118.180 192.400,118.000 193.120,118.000 194.000 C 118.000 194.880,117.820 195.600,117.600 195.600 C 117.380 195.600,117.200 196.320,117.200 197.200 C 117.200 198.080,117.020 198.800,116.800 198.800 C 116.130 198.800,116.288 207.145,116.971 207.829 C 118.621 209.478,125.200 206.072,125.200 203.569 C 125.200 203.323,125.740 202.617,126.400 202.000 C 127.060 201.383,127.600 200.631,127.600 200.328 C 127.600 200.025,127.960 199.517,128.400 199.200 C 128.840 198.883,129.200 198.303,129.200 197.912 C 129.200 197.520,129.380 197.200,129.600 197.200 C 129.820 197.200,130.000 197.920,130.000 198.800 L 130.000 200.400 131.600 200.400 C 132.933 200.400,133.200 200.267,133.200 199.600 C 133.200 199.160,133.380 198.800,133.600 198.800 C 133.820 198.800,134.000 198.480,134.000 198.088 C 134.000 197.697,134.360 197.117,134.800 196.800 C 135.240 196.483,135.600 195.981,135.600 195.686 C 135.600 195.390,136.500 194.271,137.600 193.200 C 138.700 192.129,139.600 191.052,139.600 190.808 C 139.600 190.208,141.586 188.253,141.888 188.555 C 142.020 188.687,141.739 189.132,141.264 189.544 C 140.789 189.957,140.400 190.588,140.400 190.947 C 140.400 191.306,140.220 191.600,140.000 191.600 C 139.780 191.600,139.600 192.140,139.600 192.800 C 139.600 193.460,139.420 194.000,139.200 194.000 C 138.980 194.000,138.800 194.540,138.800 195.200 C 138.800 195.860,138.620 196.400,138.400 196.400 C 138.180 196.400,138.000 197.396,138.000 198.613 C 138.000 201.322,139.826 203.600,141.997 203.600 C 143.333 203.600,146.800 200.576,146.800 199.411 C 146.800 199.075,146.980 198.800,147.200 198.800 C 147.420 198.800,147.600 199.078,147.600 199.418 C 147.600 200.492,149.465 202.000,150.792 202.000 C 152.029 202.000,155.600 199.016,155.600 197.982 C 155.600 197.524,156.574 196.400,156.971 196.400 C 157.097 196.400,157.200 197.660,157.200 199.200 C 157.200 200.800,157.371 202.000,157.600 202.000 C 157.820 202.000,158.000 202.360,158.000 202.800 C 158.000 204.096,162.077 203.959,163.418 202.618 C 163.958 202.078,164.400 201.358,164.400 201.018 C 164.400 200.678,164.580 200.400,164.800 200.400 C 165.036 200.400,165.200 201.810,165.200 203.829 C 165.200 207.823,165.551 208.400,167.980 208.400 C 169.615 208.400,174.000 204.881,174.000 203.569 C 174.000 203.323,174.540 202.617,175.200 202.000 C 175.860 201.383,176.400 200.631,176.400 200.328 C 176.400 200.025,176.760 199.517,177.200 199.200 C 177.640 198.883,178.000 198.375,178.000 198.072 C 178.000 197.769,178.540 197.017,179.200 196.400 C 179.860 195.783,180.400 194.991,180.400 194.640 C 180.400 194.288,180.580 194.000,180.800 194.000 C 181.020 194.000,181.200 193.460,181.200 192.800 C 181.200 191.976,181.003 191.600,180.571 191.600 C 179.838 191.600,178.800 192.539,178.800 193.203 C 178.800 193.456,178.080 194.354,177.200 195.200 C 176.320 196.046,175.600 196.946,175.600 197.200 C 175.600 197.454,174.880 198.354,174.000 199.200 C 173.120 200.046,172.400 200.937,172.400 201.182 C 172.400 201.623,169.823 204.400,169.413 204.400 C 169.296 204.400,169.200 203.680,169.200 202.800 C 169.200 201.920,169.380 201.200,169.600 201.200 C 169.820 201.200,170.000 200.480,170.000 199.600 C 170.000 198.720,170.180 198.000,170.400 198.000 C 170.620 198.000,170.800 197.460,170.800 196.800 C 170.800 196.140,170.980 195.600,171.200 195.600 C 171.420 195.600,171.600 195.060,171.600 194.400 C 171.600 193.740,171.780 193.200,172.000 193.200 C 172.220 193.200,172.400 192.840,172.400 192.400 C 172.400 191.960,172.220 191.600,172.000 191.600 C 171.780 191.600,171.600 191.420,171.600 191.200 C 171.600 190.980,171.960 190.800,172.400 190.800 C 172.933 190.800,173.200 190.533,173.200 190.000 C 173.200 189.560,173.380 189.200,173.600 189.200 C 173.820 189.200,174.000 188.660,174.000 188.000 C 174.000 187.340,174.180 186.800,174.400 186.800 C 174.620 186.800,174.800 186.440,174.800 186.000 C 174.800 185.560,174.980 185.200,175.200 185.200 C 175.420 185.200,175.600 184.737,175.600 184.171 C 175.600 182.654,176.495 182.000,178.571 182.000 C 179.577 182.000,180.400 181.820,180.400 181.600 C 180.400 181.380,181.120 181.200,182.000 181.200 C 183.333 181.200,183.600 181.067,183.600 180.400 C 183.600 179.676,183.333 179.600,180.800 179.600 C 178.267 179.600,178.000 179.524,178.000 178.800 C 178.000 178.360,178.180 178.000,178.400 178.000 C 178.620 178.000,178.800 177.680,178.800 177.288 C 178.800 176.897,179.160 176.317,179.600 176.000 C 180.040 175.683,180.400 175.143,180.400 174.800 C 180.400 174.457,180.760 173.917,181.200 173.600 C 181.640 173.283,182.000 172.703,182.000 172.312 C 182.000 171.920,182.180 171.600,182.400 171.600 C 182.620 171.600,182.800 171.060,182.800 170.400 C 182.800 169.211,182.780 169.200,180.582 169.200 C 178.255 169.200,176.400 170.345,176.400 171.782 C 176.400 172.122,176.220 172.400,176.000 172.400 C 175.780 172.400,175.600 172.720,175.600 173.112 C 175.600 173.503,175.240 174.083,174.800 174.400 C 174.360 174.717,174.000 175.297,174.000 175.688 C 174.000 176.080,173.820 176.400,173.600 176.400 C 173.380 176.400,173.200 176.760,173.200 177.200 C 173.200 177.640,173.020 178.000,172.800 178.000 C 172.580 178.000,172.400 178.360,172.400 178.800 C 172.400 179.493,172.133 179.600,170.400 179.600 C 169.300 179.600,168.400 179.780,168.400 180.000 C 168.400 180.233,167.067 180.400,165.200 180.400 C 162.267 180.400,162.000 180.467,162.000 181.200 C 162.000 181.952,162.267 182.000,166.400 182.000 L 170.800 182.000 170.800 183.200 C 170.800 183.860,170.620 184.400,170.400 184.400 C 170.180 184.400,170.000 184.940,170.000 185.600 C 170.000 186.260,169.820 186.800,169.600 186.800 C 169.380 186.800,169.200 187.340,169.200 188.000 C 169.200 188.660,169.020 189.200,168.800 189.200 C 168.580 189.200,168.400 189.560,168.400 190.000 C 168.400 190.440,168.220 190.800,168.000 190.800 C 167.780 190.800,167.600 191.160,167.600 191.600 C 167.600 192.040,167.420 192.400,167.200 192.400 C 166.980 192.400,166.800 192.688,166.800 193.040 C 166.800 193.391,166.260 194.183,165.600 194.800 C 164.940 195.417,164.400 196.169,164.400 196.472 C 164.400 196.775,164.040 197.283,163.600 197.600 C 163.160 197.917,162.800 198.420,162.800 198.717 C 162.800 199.254,161.866 200.400,161.429 200.400 C 161.303 200.400,161.200 199.500,161.200 198.400 C 161.200 197.300,161.380 196.400,161.600 196.400 C 161.820 196.400,162.000 195.680,162.000 194.800 C 162.000 193.920,162.180 193.200,162.400 193.200 C 162.620 193.200,162.800 192.840,162.800 192.400 C 162.800 191.960,162.980 191.600,163.200 191.600 C 163.814 191.600,163.675 188.818,163.029 188.171 C 162.325 187.468,159.730 187.415,159.495 188.100 C 159.387 188.416,158.874 188.121,158.101 187.300 C 156.875 185.995,153.200 185.321,153.200 186.400 C 153.200 186.620,152.917 186.800,152.571 186.800 C 151.763 186.800,150.800 187.763,150.800 188.571 C 150.800 188.917,150.620 189.200,150.400 189.200 C 150.180 189.200,150.000 189.560,150.000 190.000 C 150.000 190.440,149.820 190.800,149.600 190.800 C 149.380 190.800,149.200 191.120,149.200 191.512 C 149.200 191.903,148.840 192.483,148.400 192.800 C 147.960 193.117,147.600 193.611,147.600 193.897 C 147.600 194.384,143.465 198.800,143.009 198.800 C 142.894 198.800,142.800 197.900,142.800 196.800 C 142.800 195.700,142.980 194.800,143.200 194.800 C 143.420 194.800,143.600 194.440,143.600 194.000 C 143.600 193.560,143.780 193.200,144.000 193.200 C 144.220 193.200,144.400 192.660,144.400 192.000 C 144.400 191.340,144.580 190.800,144.800 190.800 C 145.020 190.800,145.200 190.440,145.200 190.000 C 145.200 189.560,145.380 189.200,145.600 189.200 C 145.820 189.200,146.000 188.840,146.000 188.400 C 146.000 187.960,146.180 187.600,146.400 187.600 C 147.014 187.600,146.875 184.818,146.229 184.171 C 144.720 182.662,139.600 184.691,139.600 186.797 C 139.600 187.220,136.211 190.800,135.811 190.800 C 135.695 190.800,135.600 190.260,135.600 189.600 C 135.600 188.940,135.780 188.400,136.000 188.400 C 136.220 188.400,136.400 188.123,136.400 187.785 C 136.400 187.446,138.020 185.563,140.000 183.600 C 141.980 181.637,143.600 179.826,143.600 179.576 C 143.600 179.326,144.140 178.617,144.800 178.000 C 145.460 177.383,146.000 176.591,146.000 176.240 C 146.000 175.888,146.180 175.600,146.400 175.600 C 146.620 175.600,146.800 175.240,146.800 174.800 C 146.800 174.360,146.980 174.000,147.200 174.000 C 147.420 174.000,147.600 173.640,147.600 173.200 C 147.600 172.760,147.780 172.400,148.000 172.400 C 148.220 172.400,148.400 172.040,148.400 171.600 C 148.400 171.160,148.580 170.800,148.800 170.800 C 149.020 170.800,149.200 170.440,149.200 170.000 C 149.200 169.560,149.380 169.200,149.600 169.200 C 149.820 169.200,150.000 168.660,150.000 168.000 C 150.000 167.340,150.180 166.800,150.400 166.800 C 151.061 166.800,150.905 160.048,150.229 159.371 C 149.582 158.725,146.800 158.586,146.800 159.200 M148.400 164.000 C 148.400 164.660,148.220 165.200,148.000 165.200 C 147.780 165.200,147.600 165.740,147.600 166.400 C 147.600 167.060,147.420 167.600,147.200 167.600 C 146.980 167.600,146.800 167.960,146.800 168.400 C 146.800 168.840,146.620 169.200,146.400 169.200 C 146.180 169.200,146.000 169.560,146.000 170.000 C 146.000 170.440,145.820 170.800,145.600 170.800 C 145.380 170.800,145.200 171.160,145.200 171.600 C 145.200 172.040,145.020 172.400,144.800 172.400 C 144.580 172.400,144.400 172.720,144.400 173.112 C 144.400 173.503,144.040 174.083,143.600 174.400 C 143.160 174.717,142.800 175.257,142.800 175.600 C 142.800 175.943,142.440 176.483,142.000 176.800 C 141.560 177.117,141.200 177.620,141.200 177.917 C 141.200 178.454,140.266 179.600,139.829 179.600 C 139.703 179.600,139.600 179.255,139.600 178.833 C 139.600 178.412,139.375 177.962,139.100 177.833 C 138.700 177.647,138.700 177.553,139.100 177.367 C 139.375 177.238,139.600 176.788,139.600 176.367 C 139.600 175.945,139.780 175.600,140.000 175.600 C 140.220 175.600,140.400 175.240,140.400 174.800 C 140.400 174.360,140.580 174.000,140.800 174.000 C 141.020 174.000,141.200 173.640,141.200 173.200 C 141.200 172.760,141.380 172.400,141.600 172.400 C 141.820 172.400,142.000 172.040,142.000 171.600 C 142.000 171.160,142.180 170.800,142.400 170.800 C 142.620 170.800,142.800 170.517,142.800 170.171 C 142.800 169.363,143.763 168.400,144.571 168.400 C 144.933 168.400,145.200 168.061,145.200 167.600 C 145.200 167.160,145.380 166.800,145.600 166.800 C 145.820 166.800,146.000 166.440,146.000 166.000 C 146.000 165.560,146.180 165.200,146.400 165.200 C 146.620 165.200,146.800 164.922,146.800 164.583 C 146.800 163.927,147.599 162.841,148.100 162.815 C 148.265 162.807,148.400 163.340,148.400 164.000 M289.700 170.616 C 288.985 171.365,288.400 172.213,288.400 172.500 C 288.400 172.788,288.040 173.283,287.600 173.600 C 287.160 173.917,286.800 174.497,286.800 174.888 C 286.800 175.280,286.620 175.600,286.400 175.600 C 286.180 175.600,286.000 175.960,286.000 176.400 C 286.000 176.840,285.820 177.200,285.600 177.200 C 285.380 177.200,285.200 177.740,285.200 178.400 C 285.200 179.573,285.156 179.600,283.200 179.600 C 282.100 179.600,281.200 179.780,281.200 180.000 C 281.200 180.233,279.867 180.400,278.000 180.400 C 275.067 180.400,274.800 180.467,274.800 181.200 C 274.800 181.952,275.067 182.000,279.200 182.000 C 281.867 182.000,283.600 182.158,283.600 182.400 C 283.600 182.620,283.420 182.800,283.200 182.800 C 282.980 182.800,282.800 183.340,282.800 184.000 C 282.800 184.660,282.620 185.200,282.400 185.200 C 282.180 185.200,282.000 185.740,282.000 186.400 C 282.000 187.060,281.820 187.600,281.600 187.600 C 281.380 187.600,281.200 188.068,281.200 188.640 C 281.200 189.279,280.738 190.111,280.000 190.800 C 279.340 191.417,278.800 192.137,278.800 192.400 C 278.800 192.663,278.260 193.383,277.600 194.000 C 276.940 194.617,276.400 195.322,276.400 195.568 C 276.400 196.508,271.241 201.200,270.207 201.200 C 269.265 201.200,269.200 201.071,269.200 199.200 C 269.200 198.100,269.380 197.200,269.600 197.200 C 269.820 197.200,270.000 196.480,270.000 195.600 C 270.000 194.720,270.180 194.000,270.400 194.000 C 270.620 194.000,270.800 193.460,270.800 192.800 C 270.800 192.140,270.980 191.600,271.200 191.600 C 271.420 191.600,271.600 191.060,271.600 190.400 C 271.600 189.740,271.780 189.200,272.000 189.200 C 272.220 189.200,272.400 188.737,272.400 188.171 C 272.400 187.245,273.186 186.000,273.771 186.000 C 273.897 186.000,274.000 186.540,274.000 187.200 C 274.000 187.860,273.820 188.400,273.600 188.400 C 273.380 188.400,273.200 188.940,273.200 189.600 C 273.200 190.957,274.733 191.324,275.829 190.229 C 276.859 189.198,276.588 184.952,275.418 183.782 C 274.451 182.815,272.400 182.419,272.400 183.200 C 272.400 183.420,272.124 183.600,271.787 183.600 C 270.991 183.600,268.400 186.191,268.400 186.987 C 268.400 187.324,268.220 187.600,268.000 187.600 C 267.780 187.600,267.600 187.960,267.600 188.400 C 267.600 188.840,267.420 189.200,267.200 189.200 C 266.980 189.200,266.800 189.560,266.800 190.000 C 266.800 190.440,266.620 190.800,266.400 190.800 C 266.180 190.800,266.000 191.120,266.000 191.512 C 266.000 191.903,265.640 192.483,265.200 192.800 C 264.760 193.117,264.400 193.625,264.400 193.928 C 264.400 194.231,263.860 194.983,263.200 195.600 C 262.540 196.217,262.000 196.925,262.000 197.174 C 262.000 197.848,259.321 200.400,258.613 200.400 C 258.276 200.400,258.000 200.580,258.000 200.800 C 258.000 201.020,257.640 201.200,257.200 201.200 C 256.507 201.200,256.400 200.933,256.400 199.200 C 256.400 198.100,256.580 197.200,256.800 197.200 C 257.020 197.200,257.200 196.660,257.200 196.000 C 257.200 194.984,257.355 194.800,258.207 194.800 C 261.560 194.800,265.961 187.104,263.829 184.971 C 263.171 184.314,258.800 184.165,258.800 184.800 C 258.800 185.020,258.522 185.200,258.182 185.200 C 257.382 185.200,255.600 186.982,255.600 187.782 C 255.600 188.122,255.420 188.400,255.200 188.400 C 254.980 188.400,254.800 188.674,254.800 189.009 C 254.800 189.707,250.645 194.000,249.969 194.000 C 249.723 194.000,248.993 194.565,248.349 195.255 C 247.704 195.945,247.047 196.370,246.888 196.200 C 246.730 196.030,246.825 195.810,247.100 195.712 C 247.375 195.614,247.600 195.228,247.600 194.855 C 247.600 194.482,247.960 193.917,248.400 193.600 C 249.008 193.162,249.200 192.565,249.200 191.112 L 249.200 189.200 247.200 189.200 C 245.467 189.200,245.200 189.307,245.200 190.000 C 245.200 190.667,244.933 190.800,243.600 190.800 C 242.720 190.800,242.000 190.980,242.000 191.200 C 242.000 191.420,241.640 191.600,241.200 191.600 C 240.760 191.600,240.400 191.420,240.400 191.200 C 240.400 190.980,240.580 190.800,240.800 190.800 C 241.766 190.800,241.262 184.026,240.218 182.982 C 238.242 181.005,233.200 182.155,233.200 184.582 C 233.200 184.922,233.020 185.200,232.800 185.200 C 232.580 185.200,232.400 185.560,232.400 186.000 C 232.400 186.533,232.133 186.800,231.600 186.800 C 231.160 186.800,230.800 186.980,230.800 187.200 C 230.800 187.420,230.522 187.600,230.182 187.600 C 229.426 187.600,227.600 189.363,227.600 190.094 C 227.600 190.385,227.240 190.883,226.800 191.200 C 226.360 191.517,226.000 192.057,226.000 192.400 C 226.000 192.743,225.640 193.283,225.200 193.600 C 224.760 193.917,224.400 194.425,224.400 194.728 C 224.400 195.031,223.860 195.783,223.200 196.400 C 222.540 197.017,222.000 197.723,222.000 197.971 C 222.000 198.412,218.625 202.000,218.211 202.000 C 218.095 202.000,218.000 201.640,218.000 201.200 C 218.000 200.760,218.180 200.400,218.400 200.400 C 218.620 200.400,218.800 200.040,218.800 199.600 C 218.800 199.160,218.980 198.800,219.200 198.800 C 219.420 198.800,219.600 198.260,219.600 197.600 C 219.600 196.940,219.780 196.400,220.000 196.400 C 220.220 196.400,220.400 196.040,220.400 195.600 C 220.400 195.160,220.580 194.800,220.800 194.800 C 221.414 194.800,221.275 192.018,220.629 191.371 C 220.300 191.043,219.280 190.800,218.229 190.800 C 216.177 190.800,215.703 189.879,217.200 188.800 C 218.579 187.806,217.812 186.000,216.010 186.000 C 215.027 186.000,213.200 187.678,213.200 188.582 C 213.200 188.922,213.020 189.200,212.800 189.200 C 212.580 189.200,212.400 189.560,212.400 190.000 C 212.400 190.440,212.580 190.800,212.800 190.800 C 213.020 190.800,213.200 191.083,213.200 191.429 C 213.200 192.373,214.214 193.200,215.371 193.200 C 216.133 193.200,216.400 193.407,216.400 194.000 C 216.400 194.440,216.220 194.800,216.000 194.800 C 215.780 194.800,215.600 195.160,215.600 195.600 C 215.600 196.040,215.420 196.400,215.200 196.400 C 214.980 196.400,214.800 196.940,214.800 197.600 C 214.800 198.260,214.620 198.800,214.400 198.800 C 213.745 198.800,213.899 204.756,214.571 205.429 C 215.218 206.075,218.000 206.214,218.000 205.600 C 218.000 205.380,218.274 205.200,218.609 205.200 C 219.301 205.200,223.600 201.048,223.600 200.380 C 223.600 198.686,225.376 198.475,226.800 200.000 C 227.417 200.660,228.209 201.200,228.560 201.200 C 228.912 201.200,229.200 201.380,229.200 201.600 C 229.200 201.820,229.920 202.000,230.800 202.000 C 231.680 202.000,232.400 201.820,232.400 201.600 C 232.400 201.380,232.674 201.200,233.009 201.200 C 233.691 201.200,238.000 197.052,238.000 196.395 C 238.000 195.325,240.784 193.200,242.187 193.200 C 243.490 193.200,243.600 193.293,243.600 194.400 C 243.600 195.060,243.420 195.600,243.200 195.600 C 242.980 195.600,242.800 196.140,242.800 196.800 C 242.800 197.460,242.620 198.000,242.400 198.000 C 242.180 198.000,242.000 198.456,242.000 199.013 C 242.000 199.770,240.890 201.129,237.600 204.400 C 235.180 206.806,233.200 209.010,233.200 209.299 C 233.200 209.587,232.840 210.083,232.400 210.400 C 231.960 210.717,231.600 211.297,231.600 211.688 C 231.600 212.080,231.420 212.400,231.200 212.400 C 230.980 212.400,230.800 212.940,230.800 213.600 C 230.800 214.260,230.620 214.800,230.400 214.800 C 229.554 214.800,229.983 217.620,230.982 218.618 C 233.049 220.685,238.800 219.508,238.800 217.018 C 238.800 216.678,238.980 216.400,239.200 216.400 C 239.420 216.400,239.600 216.040,239.600 215.600 C 239.600 215.160,239.780 214.800,240.000 214.800 C 240.220 214.800,240.400 214.440,240.400 214.000 C 240.400 213.560,240.580 213.200,240.800 213.200 C 241.020 213.200,241.200 212.840,241.200 212.400 C 241.200 211.960,241.380 211.600,241.600 211.600 C 241.820 211.600,242.000 211.060,242.000 210.400 C 242.000 209.740,242.180 209.200,242.400 209.200 C 242.620 209.200,242.800 208.840,242.800 208.400 C 242.800 207.960,242.980 207.600,243.200 207.600 C 243.420 207.600,243.600 207.060,243.600 206.400 C 243.600 205.740,243.780 205.200,244.000 205.200 C 244.220 205.200,244.400 204.480,244.400 203.600 C 244.400 202.720,244.580 202.000,244.800 202.000 C 245.020 202.000,245.200 201.722,245.200 201.382 C 245.200 200.669,246.946 198.800,247.613 198.800 C 247.860 198.800,248.754 198.080,249.600 197.200 C 250.446 196.320,251.421 195.600,251.769 195.600 C 252.116 195.600,252.400 195.420,252.400 195.200 C 252.400 194.980,252.580 194.800,252.800 194.800 C 253.020 194.800,253.200 195.700,253.200 196.800 C 253.200 197.900,253.020 198.800,252.800 198.800 C 252.580 198.800,252.400 199.438,252.400 200.218 C 252.400 201.734,253.824 203.600,254.982 203.600 C 255.322 203.600,255.600 203.780,255.600 204.000 C 255.600 204.220,256.140 204.400,256.800 204.400 C 257.460 204.400,258.000 204.220,258.000 204.000 C 258.000 203.780,258.275 203.600,258.611 203.600 C 259.300 203.600,262.800 200.252,262.800 199.592 C 262.800 199.156,264.584 197.200,264.982 197.200 C 265.102 197.200,265.200 198.460,265.200 200.000 C 265.200 201.600,265.371 202.800,265.600 202.800 C 265.820 202.800,266.000 203.160,266.000 203.600 C 266.000 204.133,266.267 204.400,266.800 204.400 C 267.240 204.400,267.600 204.580,267.600 204.800 C 267.600 205.020,267.960 205.200,268.400 205.200 C 268.840 205.200,269.200 205.020,269.200 204.800 C 269.200 204.580,269.700 204.400,270.312 204.400 C 270.965 204.400,271.661 204.070,272.000 203.600 C 272.317 203.160,272.813 202.800,273.102 202.800 C 273.738 202.800,276.400 200.205,276.400 199.585 C 276.400 199.125,277.373 198.000,277.771 198.000 C 277.897 198.000,278.000 198.720,278.000 199.600 C 278.000 200.480,277.820 201.200,277.600 201.200 C 276.663 201.200,277.148 206.385,278.182 207.418 C 280.078 209.315,285.200 207.677,285.200 205.174 C 285.200 204.925,285.740 204.217,286.400 203.600 C 287.060 202.983,287.600 202.263,287.600 202.000 C 287.600 201.737,288.140 201.017,288.800 200.400 C 289.460 199.783,290.000 199.031,290.000 198.728 C 290.000 198.425,290.360 197.917,290.800 197.600 C 291.240 197.283,291.600 196.743,291.600 196.400 C 291.600 196.057,291.960 195.517,292.400 195.200 C 292.840 194.883,293.200 194.303,293.200 193.912 C 293.200 193.520,293.380 193.200,293.600 193.200 C 293.820 193.200,294.000 192.840,294.000 192.400 C 294.000 191.778,293.733 191.600,292.800 191.600 C 291.967 191.600,291.600 191.796,291.600 192.240 C 291.600 192.591,291.060 193.383,290.400 194.000 C 289.740 194.617,289.200 195.337,289.200 195.600 C 289.200 195.863,288.660 196.583,288.000 197.200 C 287.340 197.817,286.800 198.522,286.800 198.768 C 286.800 199.202,281.823 204.400,281.407 204.400 C 281.293 204.400,281.200 204.040,281.200 203.600 C 281.200 203.160,281.380 202.800,281.600 202.800 C 281.820 202.800,282.000 202.080,282.000 201.200 C 282.000 200.320,282.180 199.600,282.400 199.600 C 282.620 199.600,282.800 198.880,282.800 198.000 C 282.800 197.120,282.980 196.400,283.200 196.400 C 283.420 196.400,283.600 196.040,283.600 195.600 C 283.600 195.160,283.420 194.800,283.200 194.800 C 282.980 194.800,282.800 194.620,282.800 194.400 C 282.800 194.180,283.160 194.000,283.600 194.000 C 284.133 194.000,284.400 193.733,284.400 193.200 C 284.400 192.760,284.220 192.400,284.000 192.400 C 283.780 192.400,283.600 192.220,283.600 192.000 C 283.600 191.780,283.960 191.600,284.400 191.600 C 284.933 191.600,285.200 191.333,285.200 190.800 C 285.200 190.360,285.380 190.000,285.600 190.000 C 285.820 190.000,286.000 189.460,286.000 188.800 C 286.000 188.140,286.180 187.600,286.400 187.600 C 286.620 187.600,286.800 187.240,286.800 186.800 C 286.800 186.360,286.980 186.000,287.200 186.000 C 287.420 186.000,287.600 185.640,287.600 185.200 C 287.600 184.760,287.780 184.400,288.000 184.400 C 288.220 184.400,288.400 183.860,288.400 183.200 C 288.400 182.027,288.444 182.000,290.400 182.000 C 291.500 182.000,292.400 181.820,292.400 181.600 C 292.400 181.380,293.120 181.200,294.000 181.200 C 295.333 181.200,295.600 181.067,295.600 180.400 C 295.600 179.676,295.333 179.600,292.800 179.600 C 291.200 179.600,290.000 179.429,290.000 179.200 C 290.000 178.980,290.180 178.800,290.400 178.800 C 290.620 178.800,290.800 178.440,290.800 178.000 C 290.800 177.560,290.980 177.200,291.200 177.200 C 291.420 177.200,291.600 176.880,291.600 176.488 C 291.600 176.097,291.960 175.517,292.400 175.200 C 292.840 174.883,293.200 174.343,293.200 174.000 C 293.200 173.657,293.560 173.117,294.000 172.800 C 294.557 172.398,294.800 171.765,294.800 170.712 L 294.800 169.200 292.900 169.227 C 291.278 169.251,290.810 169.454,289.700 170.616 M37.200 170.400 C 37.200 170.620,36.660 170.800,36.000 170.800 C 35.340 170.800,34.800 170.980,34.800 171.200 C 34.800 171.420,34.524 171.600,34.187 171.600 C 33.391 171.600,30.800 174.191,30.800 174.987 C 30.800 175.324,30.620 175.600,30.400 175.600 C 30.180 175.600,30.000 175.960,30.000 176.400 C 30.000 176.840,29.820 177.200,29.600 177.200 C 28.965 177.200,29.114 181.571,29.771 182.229 C 30.759 183.216,31.600 182.927,31.600 181.600 C 31.600 180.940,31.780 180.400,32.000 180.400 C 32.220 180.400,32.400 180.040,32.400 179.600 C 32.400 179.160,32.580 178.800,32.800 178.800 C 33.020 178.800,33.200 178.480,33.200 178.088 C 33.200 177.697,33.560 177.117,34.000 176.800 C 34.440 176.483,34.800 175.985,34.800 175.694 C 34.800 174.963,36.626 173.200,37.382 173.200 C 37.836 173.200,38.000 173.624,38.000 174.800 C 38.000 175.680,37.820 176.400,37.600 176.400 C 37.380 176.400,37.200 176.940,37.200 177.600 C 37.200 178.260,37.020 178.800,36.800 178.800 C 36.580 178.800,36.400 179.160,36.400 179.600 C 36.400 180.040,36.220 180.400,36.000 180.400 C 35.780 180.400,35.600 180.940,35.600 181.600 C 35.600 182.260,35.420 182.800,35.200 182.800 C 34.980 182.800,34.800 183.160,34.800 183.600 C 34.800 184.040,34.620 184.400,34.400 184.400 C 34.180 184.400,34.000 184.760,34.000 185.200 C 34.000 185.640,33.820 186.000,33.600 186.000 C 33.380 186.000,33.200 186.540,33.200 187.200 C 33.200 187.860,33.020 188.400,32.800 188.400 C 32.580 188.400,32.400 188.940,32.400 189.600 C 32.400 190.260,32.220 190.800,32.000 190.800 C 31.780 190.800,31.600 191.340,31.600 192.000 C 31.600 192.660,31.420 193.200,31.200 193.200 C 30.980 193.200,30.800 193.560,30.800 194.000 C 30.800 194.440,30.620 194.800,30.400 194.800 C 30.180 194.800,30.000 195.340,30.000 196.000 C 30.000 196.660,29.820 197.200,29.600 197.200 C 29.380 197.200,29.200 197.560,29.200 198.000 C 29.200 198.440,29.020 198.800,28.800 198.800 C 28.165 198.800,28.314 203.171,28.971 203.829 C 30.115 204.972,32.400 204.173,32.400 202.629 C 32.400 202.283,32.580 202.000,32.800 202.000 C 33.020 202.000,33.200 201.640,33.200 201.200 C 33.200 200.760,33.380 200.400,33.600 200.400 C 33.820 200.400,34.000 200.040,34.000 199.600 C 34.000 199.160,34.180 198.800,34.400 198.800 C 34.620 198.800,34.800 198.440,34.800 198.000 C 34.800 197.560,34.980 197.200,35.200 197.200 C 35.420 197.200,35.600 196.880,35.600 196.488 C 35.600 196.097,35.960 195.517,36.400 195.200 C 36.840 194.883,37.200 194.343,37.200 194.000 C 37.200 193.657,37.560 193.117,38.000 192.800 C 38.440 192.483,38.800 191.975,38.800 191.672 C 38.800 191.369,39.340 190.617,40.000 190.000 C 40.660 189.383,41.200 188.631,41.200 188.328 C 41.200 188.025,41.560 187.517,42.000 187.200 C 42.440 186.883,42.800 186.379,42.800 186.080 C 42.800 185.782,43.520 184.846,44.400 184.000 C 45.280 183.154,46.000 182.265,46.000 182.024 C 46.000 181.374,51.214 176.277,51.530 176.618 C 51.678 176.778,51.575 176.990,51.300 177.088 C 51.025 177.186,50.800 177.612,50.800 178.033 C 50.800 178.455,50.620 178.800,50.400 178.800 C 50.180 178.800,50.000 179.160,50.000 179.600 C 50.000 180.040,49.820 180.400,49.600 180.400 C 49.380 180.400,49.200 180.760,49.200 181.200 C 49.200 181.640,49.020 182.000,48.800 182.000 C 48.580 182.000,48.400 182.360,48.400 182.800 C 48.400 183.240,48.220 183.600,48.000 183.600 C 47.780 183.600,47.600 183.960,47.600 184.400 C 47.600 184.840,47.420 185.200,47.200 185.200 C 46.980 185.200,46.800 185.560,46.800 186.000 C 46.800 186.440,46.620 186.800,46.400 186.800 C 46.180 186.800,46.000 187.340,46.000 188.000 C 46.000 188.660,45.820 189.200,45.600 189.200 C 45.380 189.200,45.200 189.560,45.200 190.000 C 45.200 190.440,45.020 190.800,44.800 190.800 C 44.580 190.800,44.400 191.160,44.400 191.600 C 44.400 192.040,44.220 192.400,44.000 192.400 C 43.780 192.400,43.600 192.760,43.600 193.200 C 43.600 193.640,43.420 194.000,43.200 194.000 C 42.980 194.000,42.800 194.540,42.800 195.200 C 42.800 195.860,42.620 196.400,42.400 196.400 C 42.180 196.400,42.000 196.760,42.000 197.200 C 42.000 197.640,41.820 198.000,41.600 198.000 C 41.380 198.000,41.200 198.540,41.200 199.200 C 41.200 199.860,41.020 200.400,40.800 200.400 C 40.567 200.400,40.400 201.733,40.400 203.600 C 40.400 205.467,40.567 206.800,40.800 206.800 C 41.020 206.800,41.200 207.256,41.200 207.813 C 41.200 211.030,47.391 213.045,49.818 210.618 C 51.047 209.389,51.155 207.600,50.000 207.600 C 49.560 207.600,49.200 207.780,49.200 208.000 C 49.200 208.222,48.133 208.400,46.800 208.400 L 44.400 208.400 44.400 206.400 C 44.400 205.300,44.580 204.400,44.800 204.400 C 45.020 204.400,45.200 203.860,45.200 203.200 C 45.200 202.540,45.380 202.000,45.600 202.000 C 45.820 202.000,46.000 201.640,46.000 201.200 C 46.000 200.760,46.180 200.400,46.400 200.400 C 46.620 200.400,46.800 200.040,46.800 199.600 C 46.800 199.160,46.980 198.800,47.200 198.800 C 47.420 198.800,47.600 198.260,47.600 197.600 C 47.600 196.940,47.780 196.400,48.000 196.400 C 48.220 196.400,48.400 196.040,48.400 195.600 C 48.400 195.160,48.580 194.800,48.800 194.800 C 49.020 194.800,49.200 194.440,49.200 194.000 C 49.200 193.560,49.380 193.200,49.600 193.200 C 49.820 193.200,50.000 192.840,50.000 192.400 C 50.000 191.960,50.180 191.600,50.400 191.600 C 50.620 191.600,50.800 191.060,50.800 190.400 C 50.800 189.740,50.980 189.200,51.200 189.200 C 51.420 189.200,51.600 188.840,51.600 188.400 C 51.600 187.960,51.780 187.600,52.000 187.600 C 52.220 187.600,52.400 187.240,52.400 186.800 C 52.400 186.360,52.580 186.000,52.800 186.000 C 53.020 186.000,53.200 185.640,53.200 185.200 C 53.200 184.760,53.380 184.400,53.600 184.400 C 53.820 184.400,54.000 184.040,54.000 183.600 C 54.000 183.160,54.180 182.800,54.400 182.800 C 54.620 182.800,54.800 182.260,54.800 181.600 C 54.800 180.940,54.980 180.400,55.200 180.400 C 55.422 180.400,55.600 179.333,55.600 178.000 C 55.600 176.667,55.422 175.600,55.200 175.600 C 54.980 175.600,54.800 175.317,54.800 174.971 C 54.800 174.626,54.543 174.086,54.229 173.771 C 53.582 173.125,50.800 172.986,50.800 173.600 C 50.800 173.820,50.527 174.000,50.193 174.000 C 49.502 174.000,44.400 178.953,44.400 179.624 C 44.400 179.865,43.680 180.754,42.800 181.600 C 41.920 182.446,41.200 183.340,41.200 183.587 C 41.200 184.038,39.426 186.000,39.018 186.000 C 38.898 186.000,38.800 185.640,38.800 185.200 C 38.800 184.760,38.980 184.400,39.200 184.400 C 39.420 184.400,39.600 184.040,39.600 183.600 C 39.600 183.160,39.780 182.800,40.000 182.800 C 40.220 182.800,40.400 182.260,40.400 181.600 C 40.400 180.940,40.580 180.400,40.800 180.400 C 41.020 180.400,41.200 179.500,41.200 178.400 C 41.200 177.300,41.380 176.400,41.600 176.400 C 41.820 176.400,42.000 176.040,42.000 175.600 C 42.000 175.160,41.820 174.800,41.600 174.800 C 41.380 174.800,41.200 174.157,41.200 173.371 C 41.200 171.859,40.471 170.800,39.429 170.800 C 39.083 170.800,38.800 170.620,38.800 170.400 C 38.800 170.180,38.440 170.000,38.000 170.000 C 37.560 170.000,37.200 170.180,37.200 170.400 M202.000 170.712 C 202.000 171.103,201.640 171.683,201.200 172.000 C 200.760 172.317,200.400 172.897,200.400 173.288 C 200.400 173.680,200.220 174.000,200.000 174.000 C 199.780 174.000,199.600 174.360,199.600 174.800 C 199.600 175.240,199.420 175.600,199.200 175.600 C 198.980 175.600,198.800 175.960,198.800 176.400 C 198.800 176.840,198.620 177.200,198.400 177.200 C 198.180 177.200,198.000 177.740,198.000 178.400 C 198.000 179.060,197.820 179.600,197.600 179.600 C 197.380 179.600,197.200 179.960,197.200 180.400 C 197.200 180.840,197.020 181.200,196.800 181.200 C 196.580 181.200,196.400 181.560,196.400 182.000 C 196.400 182.440,196.220 182.800,196.000 182.800 C 195.780 182.800,195.600 183.160,195.600 183.600 C 195.600 184.040,195.420 184.400,195.200 184.400 C 194.980 184.400,194.800 184.940,194.800 185.600 C 194.800 186.260,194.620 186.800,194.400 186.800 C 194.180 186.800,194.000 187.340,194.000 188.000 C 194.000 188.660,193.820 189.200,193.600 189.200 C 193.380 189.200,193.200 189.740,193.200 190.400 C 193.200 191.060,193.020 191.600,192.800 191.600 C 192.580 191.600,192.400 192.140,192.400 192.800 C 192.400 193.460,192.220 194.000,192.000 194.000 C 191.780 194.000,191.600 194.900,191.600 196.000 C 191.600 197.100,191.420 198.000,191.200 198.000 C 190.980 198.000,190.800 198.720,190.800 199.600 C 190.800 200.480,190.620 201.200,190.400 201.200 C 189.786 201.200,189.925 203.982,190.571 204.629 C 192.148 206.205,194.800 204.951,194.800 202.629 C 194.800 201.843,194.980 201.200,195.200 201.200 C 195.420 201.200,195.600 200.660,195.600 200.000 C 195.600 199.340,195.780 198.800,196.000 198.800 C 196.220 198.800,196.400 198.260,196.400 197.600 C 196.400 196.940,196.580 196.400,196.800 196.400 C 197.020 196.400,197.200 196.117,197.200 195.771 C 197.200 194.646,198.284 194.000,200.171 194.000 C 201.177 194.000,202.000 193.820,202.000 193.600 C 202.000 193.380,202.320 193.200,202.712 193.200 C 203.103 193.200,203.683 192.840,204.000 192.400 C 204.317 191.960,204.857 191.600,205.200 191.600 C 205.543 191.600,206.083 191.240,206.400 190.800 C 206.717 190.360,207.210 190.000,207.495 190.000 C 208.223 190.000,214.000 184.144,214.000 183.406 C 214.000 183.073,214.180 182.800,214.400 182.800 C 214.620 182.800,214.800 182.440,214.800 182.000 C 214.800 181.560,214.980 181.200,215.200 181.200 C 215.420 181.200,215.600 180.840,215.600 180.400 C 215.600 179.960,215.780 179.600,216.000 179.600 C 216.220 179.600,216.400 178.700,216.400 177.600 C 216.400 176.500,216.580 175.600,216.800 175.600 C 217.020 175.600,217.200 175.060,217.200 174.400 C 217.200 173.740,217.020 173.200,216.800 173.200 C 216.580 173.200,216.400 172.922,216.400 172.582 C 216.400 171.424,214.534 170.000,213.018 170.000 C 212.238 170.000,211.600 170.180,211.600 170.400 C 211.600 170.620,211.325 170.800,210.989 170.800 C 210.287 170.800,206.800 174.154,206.800 174.829 C 206.800 175.077,206.260 175.783,205.600 176.400 C 204.940 177.017,204.400 177.725,204.400 177.974 C 204.400 178.633,201.596 181.333,201.273 180.985 C 201.123 180.823,201.225 180.610,201.500 180.512 C 201.775 180.414,202.000 179.988,202.000 179.567 C 202.000 179.145,202.180 178.800,202.400 178.800 C 202.620 178.800,202.800 178.440,202.800 178.000 C 202.800 177.560,202.980 177.200,203.200 177.200 C 203.420 177.200,203.600 176.700,203.600 176.088 C 203.600 175.435,203.930 174.739,204.400 174.400 C 205.008 173.962,205.200 173.365,205.200 171.912 L 205.200 170.000 203.600 170.000 C 202.333 170.000,202.000 170.148,202.000 170.712 M212.400 175.600 C 212.400 176.040,212.220 176.400,212.000 176.400 C 211.780 176.400,211.600 176.940,211.600 177.600 C 211.600 178.260,211.420 178.800,211.200 178.800 C 210.980 178.800,210.800 179.120,210.800 179.512 C 210.800 179.903,210.440 180.483,210.000 180.800 C 209.560 181.117,209.200 181.697,209.200 182.088 C 209.200 182.480,209.020 182.800,208.800 182.800 C 208.580 182.800,208.400 183.073,208.400 183.407 C 208.400 184.147,203.424 189.200,202.696 189.200 C 202.410 189.200,201.917 189.560,201.600 190.000 C 201.004 190.826,199.600 191.107,199.600 190.400 C 199.600 190.180,199.780 190.000,200.000 190.000 C 200.220 190.000,200.400 189.640,200.400 189.200 C 200.400 188.760,200.580 188.400,200.800 188.400 C 201.020 188.400,201.200 188.040,201.200 187.600 C 201.200 187.160,201.380 186.800,201.600 186.800 C 201.820 186.800,202.000 186.512,202.000 186.160 C 202.000 185.809,202.540 185.017,203.200 184.400 C 203.860 183.783,204.400 183.063,204.400 182.800 C 204.400 182.537,204.940 181.817,205.600 181.200 C 206.260 180.583,206.800 179.878,206.800 179.632 C 206.800 178.912,210.932 174.863,211.700 174.830 C 212.143 174.811,212.400 175.093,212.400 175.600 M248.100 179.398 C 247.825 179.711,247.600 180.784,247.600 181.783 C 247.600 182.782,247.420 183.600,247.200 183.600 C 246.980 183.600,246.800 183.960,246.800 184.400 C 246.800 184.840,246.620 185.200,246.400 185.200 C 246.180 185.200,246.000 185.560,246.000 186.000 C 246.000 186.650,246.267 186.800,247.418 186.800 C 248.934 186.800,250.800 185.376,250.800 184.218 C 250.800 183.878,250.980 183.600,251.200 183.600 C 251.420 183.600,251.600 183.240,251.600 182.800 C 251.600 182.360,251.780 182.000,252.000 182.000 C 252.220 182.000,252.400 181.460,252.400 180.800 C 252.400 179.867,252.222 179.600,251.600 179.600 C 251.160 179.600,250.800 179.420,250.800 179.200 C 250.800 178.594,248.670 178.751,248.100 179.398 M133.200 181.600 C 133.200 181.820,133.020 182.000,132.800 182.000 C 132.580 182.000,132.400 182.720,132.400 183.600 C 132.400 184.480,132.220 185.200,132.000 185.200 C 131.780 185.200,131.600 185.920,131.600 186.800 C 131.600 187.680,131.420 188.400,131.200 188.400 C 130.980 188.400,130.800 189.120,130.800 190.000 C 130.800 190.880,130.620 191.600,130.400 191.600 C 130.180 191.600,130.000 192.064,130.000 192.631 C 130.000 193.312,129.455 194.186,128.400 195.200 C 127.520 196.046,126.800 196.946,126.800 197.200 C 126.800 197.454,126.080 198.354,125.200 199.200 C 124.320 200.046,123.600 200.937,123.600 201.182 C 123.600 201.623,121.023 204.400,120.613 204.400 C 120.496 204.400,120.400 203.680,120.400 202.800 C 120.400 201.920,120.580 201.200,120.800 201.200 C 121.020 201.200,121.200 200.480,121.200 199.600 C 121.200 198.720,121.380 198.000,121.600 198.000 C 121.820 198.000,122.000 197.460,122.000 196.800 C 122.000 196.140,122.180 195.600,122.400 195.600 C 122.620 195.600,122.800 195.060,122.800 194.400 C 122.800 193.740,122.980 193.200,123.200 193.200 C 123.420 193.200,123.600 192.840,123.600 192.400 C 123.600 191.960,123.420 191.600,123.200 191.600 C 122.980 191.600,122.800 191.420,122.800 191.200 C 122.800 190.980,123.160 190.800,123.600 190.800 C 124.133 190.800,124.400 190.533,124.400 190.000 C 124.400 189.560,124.580 189.200,124.800 189.200 C 125.020 189.200,125.200 188.660,125.200 188.000 C 125.200 187.340,125.380 186.800,125.600 186.800 C 125.820 186.800,126.000 186.440,126.000 186.000 C 126.000 185.560,126.180 185.200,126.400 185.200 C 126.620 185.200,126.800 184.737,126.800 184.171 C 126.800 182.654,127.695 182.000,129.771 182.000 C 130.777 182.000,131.600 181.820,131.600 181.600 C 131.600 181.380,131.960 181.200,132.400 181.200 C 132.840 181.200,133.200 181.380,133.200 181.600 M79.300 185.016 C 78.585 185.765,78.000 186.613,78.000 186.900 C 78.000 187.188,77.640 187.683,77.200 188.000 C 76.760 188.317,76.400 188.897,76.400 189.288 C 76.400 189.680,76.220 190.000,76.000 190.000 C 75.780 190.000,75.600 189.537,75.600 188.971 C 75.600 187.906,74.790 186.800,74.010 186.800 C 73.181 186.800,71.600 188.756,71.600 189.782 C 71.600 190.342,71.420 190.800,71.200 190.800 C 70.980 190.800,70.800 191.520,70.800 192.400 C 70.800 193.280,70.620 194.000,70.400 194.000 C 70.180 194.000,70.000 194.320,70.000 194.712 C 70.000 195.103,69.640 195.683,69.200 196.000 C 68.760 196.317,68.400 196.813,68.400 197.102 C 68.400 197.600,65.865 200.400,65.413 200.400 C 65.296 200.400,65.200 200.040,65.200 199.600 C 65.200 199.160,65.380 198.800,65.600 198.800 C 65.822 198.800,66.000 197.733,66.000 196.400 C 66.000 195.067,66.178 194.000,66.400 194.000 C 66.620 194.000,66.800 193.640,66.800 193.200 C 66.800 192.760,66.980 192.400,67.200 192.400 C 67.420 192.400,67.600 192.040,67.600 191.600 C 67.600 191.160,67.780 190.800,68.000 190.800 C 68.220 190.800,68.400 190.440,68.400 190.000 C 68.400 189.560,68.220 189.200,68.000 189.200 C 67.780 189.200,67.600 188.840,67.600 188.400 C 67.600 187.733,67.333 187.600,66.000 187.600 C 65.120 187.600,64.400 187.780,64.400 188.000 C 64.400 188.220,64.040 188.400,63.600 188.400 C 63.139 188.400,62.800 188.133,62.800 187.771 C 62.800 185.501,58.332 185.241,56.187 187.387 C 55.424 188.149,54.800 189.049,54.800 189.387 C 54.800 189.724,54.620 190.000,54.400 190.000 C 54.180 190.000,54.000 190.360,54.000 190.800 C 54.000 191.240,53.820 191.600,53.600 191.600 C 53.380 191.600,53.200 192.140,53.200 192.800 C 53.200 193.460,53.020 194.000,52.800 194.000 C 52.139 194.000,52.295 200.752,52.971 201.429 C 53.618 202.075,56.400 202.214,56.400 201.600 C 56.400 201.380,56.683 201.200,57.029 201.200 C 57.756 201.200,58.800 200.263,58.800 199.610 C 58.800 199.161,60.575 197.200,60.982 197.200 C 61.102 197.200,61.200 198.100,61.200 199.200 C 61.200 200.300,61.380 201.200,61.600 201.200 C 61.820 201.200,62.000 201.483,62.000 201.829 C 62.000 204.043,65.736 204.291,67.813 202.213 C 68.576 201.451,69.200 200.628,69.200 200.385 C 69.200 199.736,70.246 198.800,70.971 198.800 C 71.317 198.800,71.600 198.980,71.600 199.200 C 71.600 199.420,72.140 199.600,72.800 199.600 C 73.733 199.600,74.000 199.422,74.000 198.800 C 74.000 198.360,74.180 198.000,74.400 198.000 C 74.620 198.000,74.800 197.640,74.800 197.200 C 74.800 196.760,74.980 196.400,75.200 196.400 C 75.420 196.400,75.600 196.040,75.600 195.600 C 75.600 195.160,75.780 194.800,76.000 194.800 C 76.220 194.800,76.400 194.440,76.400 194.000 C 76.400 193.560,76.580 193.200,76.800 193.200 C 77.020 193.200,77.200 192.880,77.200 192.488 C 77.200 192.097,77.560 191.517,78.000 191.200 C 78.440 190.883,78.800 190.303,78.800 189.912 C 78.800 189.520,78.980 189.200,79.200 189.200 C 79.420 189.200,79.600 189.560,79.600 190.000 C 79.600 190.440,79.420 190.800,79.200 190.800 C 78.980 190.800,78.800 191.520,78.800 192.400 C 78.800 193.280,78.620 194.000,78.400 194.000 C 77.786 194.000,77.925 196.782,78.571 197.429 C 79.411 198.269,81.200 198.173,81.200 197.288 C 81.200 196.897,81.560 196.317,82.000 196.000 C 82.440 195.683,82.800 195.103,82.800 194.712 C 82.800 194.320,82.980 194.000,83.200 194.000 C 83.420 194.000,83.600 193.717,83.600 193.371 C 83.600 192.580,84.743 191.403,85.119 191.807 C 85.274 191.973,85.175 192.190,84.900 192.288 C 84.616 192.390,84.400 193.142,84.400 194.033 C 84.400 194.895,84.220 195.600,84.000 195.600 C 83.780 195.600,83.600 196.140,83.600 196.800 C 83.600 197.460,83.780 198.000,84.000 198.000 C 84.220 198.000,84.400 198.638,84.400 199.418 C 84.400 200.391,84.709 201.145,85.382 201.818 C 86.349 202.785,88.400 203.181,88.400 202.400 C 88.400 202.180,88.678 202.000,89.018 202.000 C 89.730 202.000,91.600 200.254,91.600 199.590 C 91.600 198.936,92.790 197.853,93.119 198.207 C 93.274 198.373,93.175 198.590,92.900 198.688 C 92.309 198.899,92.217 201.200,92.800 201.200 C 93.020 201.200,93.200 201.560,93.200 202.000 C 93.200 202.500,93.467 202.800,93.912 202.800 C 94.303 202.800,94.883 203.160,95.200 203.600 C 95.811 204.447,98.800 204.779,98.800 204.000 C 98.800 203.780,99.078 203.600,99.418 203.600 C 100.131 203.600,102.000 201.854,102.000 201.187 C 102.000 200.940,102.720 200.046,103.600 199.200 C 104.480 198.354,105.200 197.454,105.200 197.200 C 105.200 196.946,105.920 196.046,106.800 195.200 C 107.680 194.354,108.400 193.379,108.400 193.031 C 108.400 192.684,108.580 192.400,108.800 192.400 C 109.020 192.400,109.200 192.040,109.200 191.600 C 109.200 191.007,108.933 190.800,108.171 190.800 C 107.095 190.800,106.000 191.612,106.000 192.411 C 106.000 192.668,105.460 193.383,104.800 194.000 C 104.140 194.617,103.600 195.322,103.600 195.568 C 103.600 195.814,102.433 197.181,101.007 198.607 C 98.265 201.350,96.400 202.075,96.400 200.400 C 96.400 199.960,96.580 199.600,96.800 199.600 C 97.020 199.600,97.200 198.777,97.200 197.771 C 97.200 195.884,97.846 194.800,98.971 194.800 C 99.317 194.800,99.600 194.620,99.600 194.400 C 99.600 194.180,99.875 194.000,100.211 194.000 C 101.004 194.000,104.400 190.604,104.400 189.811 C 104.400 189.475,104.580 189.200,104.800 189.200 C 105.646 189.200,105.217 186.380,104.218 185.382 C 102.011 183.174,95.600 185.561,95.600 188.589 C 95.600 188.925,95.420 189.200,95.200 189.200 C 94.980 189.200,94.800 189.560,94.800 190.000 C 94.800 190.440,94.620 190.800,94.400 190.800 C 94.180 190.800,94.000 191.120,94.000 191.512 C 94.000 191.903,93.640 192.483,93.200 192.800 C 92.760 193.117,92.400 193.611,92.400 193.897 C 92.400 194.384,88.265 198.800,87.809 198.800 C 87.694 198.800,87.600 198.260,87.600 197.600 C 87.600 196.940,87.780 196.400,88.000 196.400 C 88.220 196.400,88.400 196.040,88.400 195.600 C 88.400 195.160,88.580 194.800,88.800 194.800 C 89.020 194.800,89.200 194.260,89.200 193.600 C 89.200 192.940,89.380 192.400,89.600 192.400 C 89.820 192.400,90.000 192.040,90.000 191.600 C 90.000 191.160,90.180 190.800,90.400 190.800 C 91.035 190.800,90.886 186.429,90.229 185.771 C 89.579 185.122,87.600 184.993,87.600 185.600 C 87.600 185.820,87.322 186.000,86.982 186.000 C 86.270 186.000,84.400 187.746,84.400 188.410 C 84.400 189.064,83.210 190.147,82.881 189.793 C 82.726 189.627,82.825 189.410,83.100 189.312 C 83.375 189.214,83.600 188.788,83.600 188.367 C 83.600 187.945,83.780 187.600,84.000 187.600 C 84.614 187.600,84.475 184.818,83.829 184.171 C 82.791 183.134,80.730 183.519,79.300 185.016 M238.325 185.068 C 238.811 185.554,238.857 185.781,238.496 185.901 C 238.214 185.995,238.000 186.742,238.000 187.633 C 238.000 188.495,237.820 189.200,237.600 189.200 C 237.380 189.200,237.200 189.740,237.200 190.400 C 237.200 191.757,235.667 192.124,234.571 191.029 C 233.916 190.373,233.806 189.200,234.400 189.200 C 234.620 189.200,234.800 188.660,234.800 188.000 C 234.800 187.340,234.980 186.800,235.200 186.800 C 235.420 186.800,235.600 186.522,235.600 186.183 C 235.600 184.621,237.217 183.959,238.325 185.068 M102.000 187.813 C 102.000 188.896,99.361 191.911,98.873 191.385 C 98.723 191.223,98.825 191.010,99.100 190.912 C 99.375 190.814,99.600 190.388,99.600 189.967 C 99.600 189.545,99.780 189.200,100.000 189.200 C 100.220 189.200,100.400 188.922,100.400 188.583 C 100.400 187.927,101.199 186.841,101.700 186.815 C 101.865 186.807,102.000 187.256,102.000 187.813 M262.000 187.600 C 262.000 188.040,261.820 188.400,261.600 188.400 C 261.380 188.400,261.200 188.678,261.200 189.018 C 261.200 189.594,259.505 191.600,259.018 191.600 C 258.898 191.600,258.800 191.240,258.800 190.800 C 258.800 190.360,258.980 190.000,259.200 190.000 C 259.420 190.000,259.600 189.724,259.600 189.386 C 259.600 188.762,261.152 186.869,261.700 186.824 C 261.865 186.811,262.000 187.160,262.000 187.600 M295.646 187.267 C 295.621 187.633,295.386 188.005,295.125 188.092 C 294.656 188.248,295.878 190.359,296.454 190.387 C 297.435 190.436,297.958 188.405,297.026 188.171 C 296.486 188.035,295.965 187.626,295.868 187.262 C 295.706 186.650,295.689 186.650,295.646 187.267 M61.200 190.312 C 61.200 191.765,61.008 192.362,60.400 192.800 C 59.960 193.117,59.600 193.625,59.600 193.928 C 59.600 194.231,59.060 194.983,58.400 195.600 C 57.740 196.217,57.200 197.009,57.200 197.360 C 57.200 197.712,57.020 198.000,56.800 198.000 C 56.580 198.000,56.400 197.280,56.400 196.400 C 56.400 195.520,56.580 194.800,56.800 194.800 C 57.020 194.800,57.200 194.440,57.200 194.000 C 57.200 193.560,57.380 193.200,57.600 193.200 C 57.820 193.200,58.000 192.660,58.000 192.000 C 58.000 191.340,58.180 190.800,58.400 190.800 C 58.620 190.800,58.800 190.522,58.800 190.183 C 58.800 189.329,59.661 188.433,60.500 188.415 C 61.071 188.403,61.200 188.752,61.200 190.312 M156.400 189.200 C 156.400 189.640,156.580 190.000,156.800 190.000 C 157.020 190.000,157.200 190.360,157.200 190.800 C 157.200 191.240,157.020 191.600,156.800 191.600 C 156.580 191.600,156.400 191.888,156.400 192.240 C 156.400 192.591,155.860 193.383,155.200 194.000 C 154.540 194.617,154.000 195.327,154.000 195.579 C 154.000 196.036,152.230 198.000,151.818 198.000 C 151.698 198.000,151.600 197.640,151.600 197.200 C 151.600 196.760,151.780 196.400,152.000 196.400 C 152.220 196.400,152.400 195.860,152.400 195.200 C 152.400 194.540,152.580 194.000,152.800 194.000 C 153.020 194.000,153.200 193.460,153.200 192.800 C 153.200 192.140,153.380 191.600,153.600 191.600 C 153.820 191.600,154.000 191.324,154.000 190.986 C 154.000 190.362,155.552 188.469,156.100 188.424 C 156.265 188.411,156.400 188.760,156.400 189.200 M232.800 192.400 C 233.139 192.870,233.835 193.200,234.488 193.200 C 235.838 193.200,236.014 194.325,234.800 195.200 C 234.360 195.517,234.000 196.097,234.000 196.488 C 234.000 196.904,233.704 197.200,233.288 197.200 C 232.897 197.200,232.317 197.560,232.000 198.000 C 231.033 199.341,229.200 199.079,229.200 197.600 C 229.200 196.940,229.380 196.400,229.600 196.400 C 229.820 196.400,230.000 195.860,230.000 195.200 C 230.000 194.540,230.180 194.000,230.400 194.000 C 230.620 194.000,230.800 193.722,230.800 193.383 C 230.800 192.786,231.581 191.646,232.012 191.615 C 232.128 191.607,232.483 191.960,232.800 192.400 M311.000 192.819 C 311.975 193.263,351.286 201.600,352.405 201.600 C 353.900 201.600,353.203 200.880,351.300 200.460 C 348.803 199.908,342.562 198.584,338.800 197.809 C 334.034 196.827,327.924 195.542,326.400 195.201 C 316.498 192.987,308.734 191.786,311.000 192.819 M355.300 201.465 C 353.496 202.193,354.798 204.302,357.465 204.972 C 360.485 205.731,360.996 205.522,361.430 203.352 C 361.746 201.770,357.661 200.512,355.300 201.465 M239.600 206.800 C 239.600 207.240,239.420 207.600,239.200 207.600 C 238.980 207.600,238.800 207.960,238.800 208.400 C 238.800 208.840,238.620 209.200,238.400 209.200 C 238.180 209.200,238.000 209.560,238.000 210.000 C 238.000 210.440,237.820 210.800,237.600 210.800 C 237.380 210.800,237.200 211.300,237.200 211.912 C 237.200 212.565,236.870 213.261,236.400 213.600 C 235.960 213.917,235.600 214.415,235.600 214.706 C 235.600 215.217,233.865 217.200,233.418 217.200 C 233.298 217.200,233.200 216.300,233.200 215.200 C 233.200 214.100,233.380 213.200,233.600 213.200 C 233.820 213.200,234.000 212.912,234.000 212.560 C 234.000 212.209,234.540 211.417,235.200 210.800 C 235.860 210.183,236.400 209.476,236.400 209.228 C 236.400 208.736,238.814 206.072,239.300 206.027 C 239.465 206.012,239.600 206.360,239.600 206.800 " stroke="none" fill="#f5f6fb" fill-rule="evenodd"></path><path id="path4" d="M315.665 174.500 C 315.215 174.995,313.774 176.660,312.463 178.200 C 311.151 179.740,309.032 181.900,307.754 183.000 C 303.864 186.346,302.713 187.536,302.969 187.949 C 303.103 188.167,303.030 188.458,302.807 188.596 C 302.583 188.734,302.400 188.522,302.400 188.124 C 302.400 187.725,302.036 188.134,301.591 189.034 C 301.146 189.932,300.247 191.180,299.594 191.806 L 298.405 192.945 297.335 191.972 L 296.264 191.000 297.032 192.100 C 297.600 192.913,298.035 193.146,298.700 192.992 C 299.975 192.698,299.819 193.232,298.168 194.822 C 294.326 198.520,293.075 201.225,294.419 202.933 C 295.235 203.971,296.296 204.757,304.772 210.600 C 312.024 215.600,312.782 216.491,315.423 223.129 C 318.530 230.937,322.826 234.500,331.400 236.379 C 343.364 239.002,342.369 238.354,347.390 246.800 C 350.920 252.736,351.778 253.838,353.763 254.988 C 356.821 256.759,364.845 257.020,371.800 255.575 C 374.769 254.958,377.273 254.363,378.400 254.008 C 378.950 253.835,380.210 253.461,381.200 253.177 C 387.568 251.354,387.080 249.402,378.405 241.989 C 375.578 239.574,372.675 236.833,371.954 235.899 C 371.233 234.964,369.268 232.850,367.588 231.200 C 363.904 227.583,358.525 219.093,358.932 217.538 C 359.355 215.922,357.064 209.600,356.056 209.600 C 355.530 209.600,355.535 209.668,356.092 210.100 C 356.761 210.619,358.619 216.314,358.243 216.691 C 357.887 217.046,352.233 214.262,342.200 208.791 C 340.880 208.072,339.396 207.284,338.903 207.041 C 338.410 206.799,338.005 206.465,338.003 206.300 C 338.001 206.135,337.640 206.000,337.200 206.000 C 336.760 206.000,336.400 205.841,336.400 205.647 C 336.400 205.452,335.995 205.172,335.500 205.023 C 334.628 204.762,334.625 204.743,335.400 204.430 C 336.488 203.989,334.020 203.264,330.287 202.927 C 328.795 202.792,327.479 202.528,327.363 202.341 C 327.248 202.153,326.659 202.000,326.056 202.000 C 325.453 202.000,324.780 201.820,324.560 201.600 C 324.340 201.380,323.359 201.173,322.380 201.139 C 321.401 201.104,319.902 200.834,319.050 200.538 C 318.197 200.242,316.553 200.000,315.396 200.000 C 312.541 200.000,308.010 197.855,308.003 196.500 C 307.999 195.894,311.032 195.805,311.400 196.400 C 311.536 196.620,312.267 196.800,313.024 196.800 C 313.918 196.800,314.400 196.991,314.400 197.345 C 314.400 197.714,314.731 197.826,315.429 197.692 C 315.995 197.584,316.850 197.686,317.329 197.918 C 317.808 198.150,318.695 198.443,319.300 198.570 C 319.905 198.696,320.895 198.904,321.500 199.030 C 322.105 199.157,322.960 199.413,323.400 199.600 C 323.840 199.787,324.740 200.051,325.400 200.188 C 326.060 200.324,327.320 200.621,328.200 200.847 C 329.080 201.073,330.387 201.355,331.104 201.473 C 331.821 201.592,332.506 201.849,332.627 202.044 C 332.748 202.240,333.366 202.400,334.000 202.400 C 334.634 202.400,335.252 202.560,335.373 202.756 C 335.494 202.951,336.179 203.208,336.896 203.327 C 337.613 203.445,339.010 203.748,340.000 204.000 C 340.990 204.252,342.387 204.555,343.104 204.673 C 343.821 204.792,344.506 205.049,344.627 205.244 C 344.748 205.440,345.379 205.600,346.029 205.600 C 346.679 205.600,347.523 205.762,347.905 205.961 C 349.001 206.531,351.666 207.229,353.240 207.359 C 354.032 207.425,354.889 207.607,355.143 207.765 C 355.492 207.981,355.495 207.807,355.153 207.057 C 354.885 206.469,354.476 206.149,354.150 206.274 C 353.788 206.414,353.600 206.190,353.600 205.619 C 353.600 205.143,353.780 204.864,354.000 205.000 C 354.244 205.151,354.400 204.539,354.400 203.429 C 354.400 201.047,356.509 199.396,359.059 199.781 C 360.411 199.986,360.477 199.962,359.600 199.582 C 359.050 199.345,358.015 199.259,357.300 199.393 C 356.289 199.582,356.000 199.499,356.000 199.018 C 356.000 198.678,355.826 198.400,355.613 198.400 C 355.399 198.400,355.321 198.649,355.437 198.953 C 355.554 199.257,355.213 199.976,354.680 200.552 C 353.725 201.582,352.873 205.547,353.417 206.427 C 353.795 207.039,352.004 206.853,349.011 205.972 C 347.465 205.516,345.480 204.961,344.600 204.739 C 343.720 204.516,342.280 204.145,341.400 203.913 C 340.520 203.681,339.260 203.352,338.600 203.182 C 337.940 203.012,336.770 202.700,336.000 202.490 C 334.640 202.119,332.251 201.478,329.800 200.827 C 329.140 200.652,327.790 200.289,326.800 200.021 C 325.810 199.753,324.370 199.384,323.600 199.200 C 321.777 198.765,318.863 197.988,317.600 197.600 C 317.050 197.431,315.790 197.080,314.800 196.819 C 313.810 196.559,312.447 196.178,311.772 195.973 C 311.096 195.768,310.163 195.600,309.699 195.600 C 308.640 195.600,307.356 193.839,306.989 191.884 L 306.710 190.396 309.759 190.442 C 311.435 190.467,312.906 190.648,313.027 190.844 C 313.374 191.406,313.997 191.259,313.771 190.668 C 313.636 190.317,314.133 189.967,315.234 189.637 C 316.177 189.354,317.745 188.349,318.844 187.320 L 320.788 185.502 323.029 186.412 C 325.323 187.343,325.734 187.861,326.661 190.993 C 326.888 191.761,327.368 192.283,328.007 192.459 C 329.736 192.936,333.739 193.595,333.904 193.430 C 333.991 193.343,333.013 193.064,331.731 192.811 C 327.545 191.986,327.543 191.985,326.830 189.702 C 326.049 187.202,325.646 186.789,322.899 185.687 L 320.797 184.843 318.536 186.822 C 316.189 188.876,315.660 189.100,314.920 188.360 C 314.607 188.047,314.091 188.040,313.140 188.334 C 310.225 189.236,308.438 189.600,306.931 189.600 L 305.354 189.600 304.511 192.100 C 303.473 195.178,303.700 195.664,307.035 197.506 C 311.566 200.009,312.826 200.464,315.871 200.694 C 318.615 200.901,319.079 201.070,321.195 202.628 C 322.470 203.567,324.036 204.605,324.674 204.935 C 325.725 205.479,330.353 208.797,331.448 209.793 C 331.695 210.017,333.298 211.190,335.011 212.400 C 336.725 213.610,338.909 215.185,339.867 215.900 C 340.824 216.615,341.785 217.200,342.003 217.200 C 342.222 217.200,342.400 217.380,342.400 217.600 C 342.400 217.820,342.593 218.000,342.828 218.000 C 343.063 218.000,344.008 218.513,344.928 219.141 C 345.848 219.768,348.400 221.359,350.600 222.677 C 354.249 224.862,357.018 226.384,364.964 230.575 C 367.099 231.701,368.919 233.239,372.964 237.333 C 375.844 240.247,379.594 243.851,381.298 245.341 C 387.240 250.533,386.207 251.772,373.600 254.572 C 367.963 255.824,366.584 256.000,362.433 256.000 C 354.300 256.000,352.096 254.503,347.417 245.800 C 344.114 239.656,342.409 238.163,337.600 237.204 C 323.042 234.301,319.467 231.912,315.835 222.660 C 313.288 216.174,312.617 215.425,303.687 209.115 C 301.549 207.604,299.275 206.060,298.634 205.684 C 293.110 202.443,293.147 201.339,299.000 194.482 C 302.293 190.625,304.000 188.239,304.000 187.495 C 304.000 187.151,305.458 185.653,307.239 184.168 C 310.011 181.855,311.880 179.888,316.044 174.900 C 317.071 173.668,318.563 173.745,322.953 175.254 C 330.688 177.914,341.354 180.722,342.324 180.353 C 347.961 178.210,349.321 180.127,352.967 195.358 L 353.244 196.515 350.922 196.290 C 349.472 196.149,348.976 196.188,349.600 196.393 C 353.888 197.798,354.047 197.381,352.167 189.674 C 349.850 180.181,347.608 177.844,342.567 179.666 C 341.037 180.220,336.646 179.129,324.528 175.186 C 318.857 173.340,316.861 173.186,315.665 174.500 M297.600 187.200 C 297.600 187.420,297.870 187.600,298.200 187.600 C 298.530 187.600,298.800 187.420,298.800 187.200 C 298.800 186.980,298.530 186.800,298.200 186.800 C 297.870 186.800,297.600 186.980,297.600 187.200 M294.243 187.833 C 293.897 188.733,293.942 190.000,294.320 190.000 C 294.496 190.000,294.640 189.370,294.640 188.600 C 294.640 187.027,294.589 186.929,294.243 187.833 M344.400 195.600 C 344.950 195.776,345.850 195.917,346.400 195.913 C 347.298 195.906,347.278 195.874,346.200 195.600 C 344.508 195.169,343.056 195.169,344.400 195.600 M364.000 201.243 C 364.000 201.486,363.736 201.584,363.413 201.460 C 363.090 201.336,362.731 201.388,362.615 201.576 C 362.164 202.305,363.564 202.303,364.224 201.573 C 364.629 201.126,364.729 200.800,364.462 200.800 C 364.208 200.800,364.000 200.999,364.000 201.243 M370.623 202.477 C 369.122 203.900,367.844 209.038,369.200 208.200 C 369.420 208.064,369.600 207.305,369.600 206.514 C 369.600 203.782,372.985 201.060,374.657 202.448 C 375.058 202.780,375.200 202.780,375.200 202.449 C 375.200 201.965,374.963 201.906,372.768 201.842 C 371.922 201.817,371.045 202.077,370.623 202.477 M361.878 202.941 C 361.717 203.360,361.768 203.543,362.005 203.397 C 362.222 203.263,362.403 203.478,362.406 203.876 C 362.411 204.490,362.471 204.509,362.800 204.000 C 363.292 203.238,363.311 202.684,362.834 202.979 C 362.633 203.103,362.396 202.988,362.308 202.723 C 362.208 202.424,362.045 202.507,361.878 202.941 M375.354 205.200 C 375.354 206.613,375.491 207.063,375.877 206.915 C 376.180 206.799,376.400 206.078,376.400 205.200 C 376.400 204.322,376.180 203.601,375.877 203.485 C 375.491 203.337,375.354 203.787,375.354 205.200 M361.600 208.645 C 361.600 209.165,361.311 209.243,360.100 209.051 C 358.853 208.853,358.761 208.881,359.558 209.215 C 360.524 209.621,363.205 209.623,363.194 209.218 C 363.167 208.258,361.600 207.694,361.600 208.645 M374.000 209.200 C 373.530 209.860,373.236 210.400,373.346 210.400 C 373.456 210.400,373.930 209.860,374.400 209.200 C 374.870 208.540,375.164 208.000,375.054 208.000 C 374.944 208.000,374.470 208.540,374.000 209.200 M369.600 210.897 C 369.600 211.787,370.972 212.149,371.975 211.523 C 372.429 211.239,372.800 210.867,372.800 210.695 C 372.800 210.522,372.328 210.691,371.752 211.069 C 370.752 211.723,370.677 211.720,370.152 211.001 C 369.686 210.364,369.600 210.348,369.600 210.897 " stroke="none" fill="#7a4829" fill-rule="evenodd"></path></g></svg>